<svg xmlns="http://www.w3.org/2000/svg" width="512" height="512" viewBox="0 0 512 512" version="1.1">
	<path d="M 214.112 22.030 C 209.057 23.082, 208.027 23.781, 209.863 24.915 C 210.876 25.541, 210.785 25.869, 209.457 26.378 C 208.516 26.739, 207.150 26.540, 206.421 25.935 C 204.687 24.495, 198.548 26.503, 184 33.268 L 179.500 35.361 182.450 35.931 L 185.399 36.502 181.009 40.261 C 177.287 43.446, 176.126 43.927, 173.391 43.414 C 169.449 42.674, 168.703 43.114, 162.485 49.845 L 157.548 55.190 162.287 54.480 C 166.415 53.861, 166.946 53.978, 166.403 55.393 C 166.060 56.286, 164.592 57.299, 163.140 57.642 C 161.688 57.986, 157.224 60.287, 153.220 62.756 C 142.948 69.089, 140.938 73.858, 150.454 69.321 C 155.535 66.898, 155.961 68.431, 151.482 73.018 C 148.727 75.840, 146.755 77, 144.712 77 C 142.602 77, 139.998 78.628, 134.992 83.077 C 127.253 89.955, 124.948 93.411, 130.250 90.187 C 139.027 84.850, 140.589 84.007, 141.716 84.004 C 142.526 84.001, 142.289 85.092, 141.007 87.263 C 139.023 90.626, 133.433 95.182, 124.219 100.945 C 121.314 102.762, 118.486 105.093, 117.933 106.124 C 116.322 109.136, 118.858 108.450, 125.513 104.075 C 128.796 101.916, 131.635 100.301, 131.821 100.488 C 132.580 101.247, 127.373 109.043, 125.758 109.566 C 122.614 110.583, 114.079 117.946, 112.497 121.005 C 110.611 124.654, 111.416 124.761, 116.215 121.500 C 118.238 120.125, 120.143 119, 120.447 119 C 122.288 119, 120.167 121.906, 114.264 127.471 C 107.640 133.716, 107.558 133.855, 109.362 135.848 C 111.165 137.840, 111.119 137.922, 106.714 140.687 C 104.249 142.234, 99.480 146.546, 96.116 150.270 C 91.397 155.494, 90 157.748, 90 160.142 C 90 163.893, 90.303 163.714, 100.222 154.115 C 103.919 150.537, 107.198 147.865, 107.509 148.176 C 108.656 149.322, 105.423 154.662, 100.036 160.523 C 91.278 170.050, 87 175.574, 87 177.353 C 87 180.040, 88.250 179.316, 94.474 173.026 C 97.725 169.741, 100.526 167.193, 100.697 167.364 C 101.589 168.255, 98.275 175.057, 95.029 179 C 91.380 183.431, 86 191.464, 86 192.480 C 86 193.926, 88.184 192.581, 91.947 188.817 C 95.928 184.837, 96.096 184.767, 95.440 187.383 C 93.681 194.393, 92.176 197.924, 88.643 203.333 C 84.529 209.631, 84.242 211.500, 88.004 207.496 C 91.335 203.950, 91.862 204.359, 90.860 209.719 C 90.244 213.019, 88.929 215.512, 86.489 218.011 C 84.470 220.079, 83 222.593, 83 223.979 L 83 226.374 86.088 223.437 L 89.176 220.500 88.523 225 C 88.164 227.475, 87.562 234.225, 87.185 240 L 86.500 250.500 77.500 250.567 C 72.550 250.604, 66.830 250.959, 64.789 251.355 C 61.197 252.053, 61.115 252.164, 62.241 254.788 C 62.881 256.280, 63.559 257.708, 63.748 257.962 C 63.936 258.216, 69.133 258.666, 75.295 258.962 L 86.500 259.500 86.736 264 C 87.341 275.502, 89.275 295.302, 90.547 303 C 99.118 354.887, 119.219 399.471, 153.443 442.500 C 162.552 453.953, 189.661 482, 191.621 482 C 192.341 482, 194.516 480.608, 196.453 478.907 L 199.976 475.814 187.223 463.157 C 167.747 443.827, 152.863 425.109, 139.566 403.221 C 134.298 394.551, 124.733 376.728, 125.263 376.571 C 125.393 376.532, 137.728 376.626, 152.674 376.781 L 179.847 377.062 184.924 384.781 C 198.350 405.196, 208.469 417.072, 229.732 437.372 L 237.964 445.231 245.377 438.366 C 249.455 434.589, 260.678 424.525, 270.319 416 C 279.959 407.475, 287.851 400.050, 287.855 399.500 C 287.860 398.950, 284.253 395.350, 279.840 391.500 C 275.427 387.650, 270.470 382.813, 268.824 380.750 L 265.832 377 310.916 377 C 354.667 377, 356.059 376.941, 358 375 C 360.448 372.552, 360.480 371.800, 358.250 369.115 C 356.620 367.154, 355.387 366.991, 340.327 366.754 L 324.155 366.500 347.075 346 C 359.682 334.725, 370.246 324.733, 370.551 323.795 C 371.022 322.350, 367.238 317.967, 362.096 314 C 359.856 312.272, 350.721 300.535, 347.698 295.500 C 343.286 288.150, 339.192 276.130, 338.346 268.041 L 337.715 262 361.746 262 L 385.777 262 386.481 265.750 C 387.714 272.325, 392.026 279.584, 398.528 286.028 L 404.846 292.290 408.923 289.061 C 411.165 287.285, 413 285.497, 413 285.087 C 413 284.677, 410.500 281.994, 407.444 279.124 C 402.204 274.202, 398 267.077, 398 263.118 C 398 261.763, 398.699 261.483, 401.320 261.789 C 403.147 262.002, 406.352 261.462, 408.443 260.588 C 410.533 259.715, 413.652 258.995, 415.372 258.989 C 417.092 258.983, 420.188 258.699, 422.250 258.358 C 425.561 257.811, 426 257.405, 426 254.888 C 426 251.986, 424.520 251.145, 419.500 251.197 C 418.400 251.209, 413.128 251.110, 407.784 250.977 L 398.068 250.737 396.963 247.388 C 395.704 243.574, 396.455 241.303, 398.432 242.944 C 399.359 243.713, 399.983 243.333, 400.822 241.492 C 402.195 238.478, 402.977 238.407, 406.273 241 C 409.226 243.323, 409.997 243.477, 410.009 241.750 C 410.014 241.063, 408.551 239.290, 406.759 237.812 C 404.259 235.750, 403.773 234.848, 404.673 233.939 C 405.576 233.027, 406.497 233.202, 408.673 234.701 C 419.373 242.071, 423.278 242.223, 413.342 234.883 C 407.978 230.921, 407.783 230.628, 409.592 229.239 C 410.642 228.434, 413.413 226.904, 415.750 225.841 C 419.589 224.094, 420 223.563, 420 220.356 C 420 216.702, 416.212 212.201, 394.692 190.287 C 391.337 186.871, 388.897 183.770, 389.270 183.397 C 390.411 182.256, 405 193.854, 405 195.902 C 405 196.933, 407.904 200.305, 411.544 203.501 C 418.215 209.358, 420.638 210.352, 417.014 205.745 C 415.906 204.337, 414.997 202.581, 414.993 201.842 C 414.990 201.104, 414.093 199.150, 413 197.500 C 410.483 193.699, 410.483 192.701, 413 193.500 C 416.436 194.591, 415.245 192.764, 406.994 184.289 C 402.597 179.773, 399 175.530, 399 174.859 C 399 174.189, 396.913 171.696, 394.361 169.320 C 389.747 165.023, 390.230 163.269, 395 167 C 396.375 168.076, 397.969 168.966, 398.542 168.978 C 399.115 168.990, 401.571 171.025, 404 173.500 C 408.423 178.006, 410 178.914, 410 176.952 C 410 175.184, 396.427 162, 394.607 162 C 393.184 162, 390 156.794, 390 154.468 C 390 153.467, 401.400 161.802, 405.060 165.480 C 408.833 169.271, 412 170.057, 412 167.203 C 412 165.103, 406.445 159.592, 399.902 155.200 C 397.373 153.502, 394.496 150.850, 393.508 149.307 C 391.634 146.378, 357.362 112, 356.316 112 C 354.903 112, 345.955 104.433, 345.436 102.799 C 345.123 101.812, 343.756 100.726, 342.399 100.385 C 341.042 100.045, 333.535 95.494, 325.716 90.273 C 317.897 85.052, 308.806 79.420, 305.514 77.757 C 298.586 74.257, 287.405 67.442, 284.500 64.947 C 283.400 64.003, 281.375 62.913, 280 62.526 C 278.625 62.138, 273.654 59.633, 268.954 56.958 C 262.684 53.391, 257.926 51.543, 251.090 50.020 C 245.965 48.879, 239.138 47.057, 235.918 45.972 C 232.698 44.888, 229.261 43.986, 228.282 43.968 C 226.031 43.928, 222.413 41.253, 223.347 40.319 C 224.557 39.110, 238.853 42.030, 251.417 46.053 C 258.069 48.184, 263.865 49.535, 264.335 49.065 C 266.056 47.344, 264.416 44.554, 260.994 43.380 C 246.795 38.512, 244.247 38.026, 231.680 37.796 C 221.138 37.602, 218.645 37.265, 217.376 35.863 C 215.951 34.289, 216.257 34.112, 221.553 33.450 C 225.357 32.975, 230.314 33.274, 236.383 34.345 C 241.398 35.231, 248.307 36.233, 251.738 36.574 C 255.585 36.956, 258.908 37.926, 260.406 39.105 C 261.742 40.156, 264.899 41.299, 267.422 41.644 C 269.945 41.990, 272.976 43.112, 274.157 44.137 C 275.339 45.161, 277.025 46.001, 277.903 46.003 C 278.781 46.005, 282.200 47.804, 285.500 50 C 288.800 52.196, 292.013 53.995, 292.639 53.997 C 294.221 54.001, 298.632 57.696, 297.915 58.416 C 296.878 59.457, 288.669 56.365, 282.559 52.631 C 275.289 48.188, 270.185 47.712, 271.683 51.617 C 272.274 53.156, 282.239 59.310, 286.116 60.531 C 287.427 60.944, 290.975 62.953, 294 64.996 C 297.025 67.039, 301.075 69.500, 303 70.464 C 304.925 71.428, 308.975 74.128, 312 76.464 C 315.025 78.801, 319.075 81.518, 321 82.503 C 322.925 83.487, 327.200 86.653, 330.500 89.537 C 333.800 92.421, 338.075 95.436, 340 96.238 C 346.988 99.147, 361.993 111.344, 383.724 131.780 C 397.632 144.859, 400.014 146.769, 399.971 144.807 C 399.956 144.088, 395.944 139.252, 391.057 134.059 C 386.021 128.709, 381.979 123.510, 381.727 122.059 C 381.483 120.652, 380.918 118.600, 380.472 117.500 C 379.692 115.577, 379.738 115.567, 381.659 117.250 C 382.758 118.213, 384.354 119, 385.206 119 C 386.058 119, 387.315 119.675, 388 120.500 C 389.553 122.371, 392 122.457, 392 120.640 C 392 119.167, 388.479 115.627, 380.257 108.833 C 369.713 100.120, 368.094 98.912, 363.584 96.391 C 361.057 94.979, 358.367 92.934, 357.606 91.848 C 355.125 88.306, 338.130 76.067, 329.874 71.877 C 327.468 70.657, 323.474 68.204, 320.999 66.426 C 318.523 64.649, 313.870 62.033, 310.659 60.613 C 307.028 59.007, 304.625 57.281, 304.302 56.049 C 304.017 54.958, 302.820 53.762, 301.642 53.390 C 298.547 52.413, 285 43.117, 285 41.970 C 285 40.747, 289.279 40.695, 290.550 41.902 C 291.073 42.399, 296.268 45.236, 302.095 48.208 C 307.922 51.179, 313.922 54.580, 315.427 55.764 C 316.933 56.949, 319.140 58.225, 320.332 58.600 C 321.525 58.975, 324.726 61.280, 327.448 63.722 C 330.169 66.163, 334.038 68.999, 336.045 70.023 C 338.052 71.047, 340.423 72.997, 341.313 74.355 C 342.204 75.714, 344.234 77.112, 345.826 77.462 C 347.417 77.811, 350.020 79.461, 351.609 81.128 C 355.545 85.256, 367.507 95, 368.638 95 C 369.142 95, 371.949 96.800, 374.877 99 C 377.805 101.200, 380.636 103, 381.168 103 C 382.378 103, 381.103 98.639, 379.743 98.125 C 378.740 97.746, 377.698 96.697, 372.817 91.155 C 371.341 89.480, 368.350 87.199, 366.171 86.087 C 363.992 84.975, 361.599 83.473, 360.854 82.747 C 360.109 82.022, 357.389 79.925, 354.808 78.087 C 352.227 76.248, 349.888 74.150, 349.609 73.424 C 349.331 72.698, 347.617 71.338, 345.801 70.400 C 343.986 69.463, 340.166 66.852, 337.313 64.598 C 334.460 62.344, 330.492 59.375, 328.494 58 C 322.564 53.918, 319 50.882, 319 49.911 C 319 46.672, 327.072 51.638, 350.151 69.074 C 362.802 78.632, 369.812 83.163, 368.509 80.941 C 365.596 75.973, 360.978 71.503, 354.695 67.571 C 350.738 65.094, 346.259 61.497, 344.742 59.577 C 342.133 56.276, 334.142 50.407, 322.639 43.345 C 319.813 41.610, 315.585 38.802, 313.244 37.105 C 304.453 30.731, 285.426 23, 278.531 23 C 275.273 23, 279.554 26.666, 283.574 27.318 C 285.492 27.630, 290.111 30.103, 293.839 32.814 C 297.567 35.525, 301.606 38.057, 302.814 38.441 C 305.429 39.271, 311 43.795, 311 45.089 C 311 45.590, 310.336 46, 309.525 46 C 307.984 46, 296.316 39.997, 292 36.982 C 290.625 36.022, 287.250 34.476, 284.500 33.546 C 281.750 32.616, 278.825 31.256, 278 30.523 C 277.175 29.791, 272.391 27.348, 267.368 25.096 C 260.655 22.085, 256.946 21.006, 253.368 21.022 L 248.500 21.044 251 23 C 252.375 24.076, 254.002 24.966, 254.615 24.978 C 256.126 25.008, 261 28.912, 261 30.092 C 261 31.290, 255.995 30.142, 254 28.486 C 250.541 25.615, 245.937 24.180, 236.500 23.029 C 221.092 21.151, 218.827 21.050, 214.112 22.030 M 267.552 32.915 C 267.213 33.464, 267.963 34.533, 269.218 35.292 C 270.473 36.051, 272.774 37.455, 274.331 38.412 C 277.155 40.148, 280 39.967, 280 38.052 C 280 35.969, 268.578 31.256, 267.552 32.915 M 199 39.500 C 197.939 40.779, 198.215 41, 200.878 41 C 204.185 41, 205.070 39.625, 202.418 38.607 C 200.328 37.805, 200.428 37.779, 199 39.500 M 189.766 47.917 C 187.971 49.522, 186.726 51.018, 187.001 51.242 C 187.275 51.465, 193.871 51.453, 201.658 51.213 L 215.817 50.778 212.526 47.889 C 209.478 45.212, 208.641 45, 201.134 45 C 193.595 45, 192.804 45.203, 189.766 47.917 M 233 50.183 C 233.825 50.989, 238.440 55.178, 243.255 59.492 C 248.237 63.954, 251.901 68.004, 251.755 68.888 C 251.586 69.918, 252.850 70.877, 255.500 71.730 C 265.581 74.975, 268.084 76.418, 274.941 82.944 C 281.742 89.416, 289.660 94.643, 305 102.786 C 308.575 104.684, 313.147 107.646, 315.159 109.369 C 317.171 111.091, 322.542 115.650, 327.094 119.500 C 353.571 141.893, 359.891 148.027, 365.733 157 C 369.979 163.522, 377.082 172.252, 377.666 171.667 C 378.306 171.027, 373.164 161.796, 370.610 159 C 369.355 157.625, 367.155 154.475, 365.722 152 C 362.295 146.079, 344.213 127.740, 334.886 120.724 C 330.823 117.668, 325.250 113.430, 322.500 111.305 C 319.750 109.181, 315.895 106.458, 313.934 105.254 C 311.973 104.050, 309.564 102.176, 308.581 101.089 C 307.597 100.002, 305.520 98.834, 303.964 98.492 C 302.408 98.150, 299.112 96.091, 296.641 93.915 C 294.169 91.739, 290.426 89.249, 288.323 88.381 C 283.494 86.388, 278 82.280, 278 80.661 C 278 79.249, 267.662 72, 265.648 72 C 263.423 72, 252.227 66.033, 251.655 64.543 C 251.360 63.775, 251.754 62.619, 252.531 61.974 C 253.634 61.059, 254.661 61.234, 257.222 62.773 C 259.025 63.857, 265.225 66.182, 271 67.941 C 276.775 69.700, 283.717 72.003, 286.428 73.058 C 289.138 74.114, 291.527 74.806, 291.737 74.596 C 291.947 74.386, 289.626 72.789, 286.580 71.046 C 283.534 69.303, 280.781 67.455, 280.462 66.939 C 280.143 66.422, 278.671 65.997, 277.191 65.993 C 275.711 65.990, 273.150 65.093, 271.500 64 C 269.850 62.907, 267.187 62.010, 265.583 62.007 C 263.979 62.003, 258.453 59.749, 253.304 56.998 C 248.155 54.247, 242.007 51.562, 239.641 51.032 C 237.276 50.502, 234.476 49.764, 233.420 49.392 C 231.720 48.793, 231.672 48.884, 233 50.183 M 194.008 56.924 C 191.153 58.824, 194.445 59.783, 206 60.416 C 212.325 60.763, 219.924 61.309, 222.888 61.629 C 228.244 62.208, 228.264 62.200, 226.388 60.213 C 224.300 58.004, 219.831 57.213, 205 56.432 C 199.478 56.141, 194.875 56.347, 194.008 56.924 M 181.500 57.963 C 180.400 58.419, 178.150 60.250, 176.500 62.032 L 173.500 65.271 176.445 64.568 C 182.480 63.126, 186.162 61.079, 185.827 59.352 C 185.427 57.288, 184.131 56.872, 181.500 57.963 M 199.500 65.639 C 182.282 67.583, 167.345 71.543, 165.267 74.715 C 164.421 76.006, 163.947 77.280, 164.212 77.546 C 164.478 77.811, 167.720 77.095, 171.416 75.953 C 184.960 71.770, 192.919 70.705, 212.033 70.521 C 229.553 70.352, 236.096 69.413, 233.016 67.510 C 230.642 66.043, 207.408 64.745, 199.500 65.639 M 246 72.785 C 246 73.628, 258.383 80, 260.019 80 C 262.670 80, 260.388 77.720, 255.029 75.014 C 249.123 72.033, 246 71.262, 246 72.785 M 199.500 74.264 C 193.450 74.713, 185.800 75.933, 182.500 76.975 C 179.200 78.018, 174.025 79.382, 171 80.007 C 163.281 81.599, 157.207 84.919, 154.731 88.897 L 152.617 92.294 156.559 91.586 C 158.726 91.197, 165.141 88.639, 170.814 85.903 C 180.321 81.317, 182.003 80.844, 192.314 79.857 C 198.466 79.269, 207.620 79.022, 212.656 79.308 C 221.370 79.803, 221.922 79.712, 224.077 77.418 C 225.322 76.093, 226.152 74.838, 225.921 74.630 C 224.917 73.728, 209.602 73.516, 199.500 74.264 M 239.629 78.857 C 237.988 80.670, 238.096 80.787, 242.404 81.872 C 248.958 83.522, 251 83.334, 251 81.079 C 251 79.714, 250.061 78.970, 247.750 78.505 C 245.963 78.145, 243.788 77.653, 242.918 77.411 C 242.048 77.169, 240.568 77.820, 239.629 78.857 M 338.534 83.150 C 338.961 83.893, 340.815 86.376, 342.655 88.668 C 344.495 90.961, 346 93.277, 346 93.815 C 346 94.982, 352.679 101, 353.974 101 C 354.471 101, 356.958 102.800, 359.500 105 C 364.582 109.398, 365.215 109.724, 364.362 107.500 C 364.045 106.675, 363.413 106, 362.956 106 C 362.500 106, 359.992 102.817, 357.382 98.928 C 354.335 94.387, 351.360 91.204, 349.068 90.034 C 347.106 89.032, 344.605 87.223, 343.511 86.014 C 340.996 83.232, 337.389 81.157, 338.534 83.150 M 260 84.349 C 260 84.679, 261.462 85.688, 263.250 86.591 C 265.038 87.495, 267.400 89.037, 268.500 90.018 C 271.568 92.755, 284.060 99.081, 285.113 98.430 C 285.626 98.113, 290.034 101.374, 294.909 105.677 C 299.784 109.980, 306.632 115.075, 310.126 117 C 313.621 118.925, 319.260 123.313, 322.658 126.750 C 326.056 130.188, 329.319 133, 329.908 133 C 330.497 133, 333.463 135.250, 336.500 138 C 339.537 140.750, 342.377 143, 342.812 143 C 343.247 143, 348.281 148.443, 353.999 155.095 C 359.717 161.746, 368.162 170.634, 372.767 174.845 C 387.743 188.539, 386.214 186.277, 360.191 156.250 C 353.875 148.963, 348.269 143, 347.731 143 C 347.194 143, 343.974 140.188, 340.575 136.750 C 331.169 127.237, 324.222 121.695, 313.900 115.472 C 308.730 112.355, 303.235 108.611, 301.689 107.152 C 298.823 104.448, 289.392 98.229, 280.626 93.262 C 277.945 91.743, 274.442 89.263, 272.841 87.750 C 271.241 86.237, 269.103 85, 268.091 85 C 267.078 85, 264.844 84.719, 263.125 84.375 C 261.406 84.031, 260 84.020, 260 84.349 M 308.167 84.788 C 308.894 86.508, 317.770 93.851, 322.267 96.452 C 324.888 97.969, 327.624 100.053, 328.346 101.084 C 329.488 102.714, 336.447 108, 337.451 108 C 337.650 108, 337.601 107.192, 337.343 106.205 C 336.498 102.971, 326.333 93.551, 322.707 92.641 C 321.354 92.302, 318.062 90.218, 315.392 88.012 C 311.016 84.396, 307.300 82.738, 308.167 84.788 M 240.887 88.741 C 234.334 89.032, 232.952 89.422, 230.963 91.540 C 229.692 92.893, 227.675 94, 226.481 94 C 225.287 94, 223.495 94.900, 222.500 96 C 220.824 97.852, 220.817 98, 222.404 98 C 223.347 98, 233.848 101.619, 245.739 106.043 C 266.834 113.891, 267.404 114.041, 269.223 112.222 C 271.042 110.402, 270.862 110.293, 261.794 107.720 C 231.795 99.207, 227.890 97.359, 233.743 94.441 C 234.977 93.826, 236.812 92.575, 237.822 91.661 C 238.831 90.748, 240.718 90, 242.014 90 C 244.644 90, 265.567 96.984, 273.858 100.629 C 280.559 103.576, 282.680 102.620, 276.844 99.284 C 264.159 92.033, 255.096 88.010, 251.881 88.201 C 250.022 88.312, 245.074 88.555, 240.887 88.741 M 158.500 94.200 C 151.715 95.806, 147.642 98.488, 145.087 103.030 C 142.523 107.588, 142.643 107.576, 150.089 102.503 C 152.613 100.783, 156 98.828, 157.616 98.159 C 159.233 97.489, 161.109 96.055, 161.786 94.971 C 162.463 93.887, 162.901 93.057, 162.758 93.126 C 162.616 93.196, 160.700 93.679, 158.500 94.200 M 187.425 95.494 C 174.107 98.281, 164.627 101.130, 158.811 104.094 C 150.969 108.091, 135 118.918, 135 120.238 C 135 120.952, 133.870 123.198, 132.490 125.230 C 131.109 127.262, 129.534 130.179, 128.990 131.712 C 128.176 134.004, 128.784 133.611, 132.410 129.500 C 139.437 121.534, 141.012 120.175, 150 114.332 C 160.376 107.587, 173.034 101.592, 180.176 100.042 C 183.104 99.406, 190.007 98.625, 195.515 98.306 C 204.518 97.784, 205.709 97.487, 207.311 95.363 L 209.093 93 203.797 93.088 C 200.884 93.137, 193.516 94.220, 187.425 95.494 M 192.964 102.098 C 186.379 102.950, 168.957 107.898, 164.762 110.109 C 155.844 114.806, 138.443 127.540, 131.924 134.138 C 125.499 140.641, 120 148.749, 120 151.718 C 120 152.125, 123.938 148.603, 128.750 143.891 C 137.469 135.353, 152.609 122.337, 158.712 118.131 C 163.992 114.493, 174.923 110.453, 184.500 108.600 C 198.323 105.926, 199.155 105.652, 200.752 103.247 C 202.446 100.695, 203.084 100.789, 192.964 102.098 M 215.583 103.643 C 214.786 105.722, 215.278 106.214, 217.357 105.417 C 219.355 104.650, 219.549 102, 217.607 102 C 216.841 102, 215.930 102.739, 215.583 103.643 M 209.674 111.406 C 209.255 112.500, 211.062 113.064, 217.817 113.943 C 222.593 114.565, 228.886 116.010, 231.803 117.154 C 238.382 119.736, 255.061 124.974, 256.750 124.989 C 257.438 124.995, 257.995 124.438, 257.989 123.750 C 257.967 121.237, 238.869 114.472, 223.490 111.529 C 213.576 109.632, 210.366 109.604, 209.674 111.406 M 178.500 115.469 C 168.552 118.778, 168.445 118.849, 158 128.988 C 147.180 139.491, 146.915 141.081, 157.500 131.992 C 165.120 125.449, 172.845 121.509, 182.155 119.417 C 189.841 117.689, 191.471 116.857, 193.090 113.832 C 193.934 112.255, 193.683 112.010, 191.285 112.071 C 189.753 112.110, 184 113.639, 178.500 115.469 M 333.556 112.910 C 332.647 114.380, 333.942 116.652, 336.305 117.734 C 339.435 119.166, 347.537 126.057, 358.650 136.737 C 363.936 141.817, 371.088 147.555, 374.543 149.487 C 381.264 153.245, 382 153.503, 382 152.094 C 382 151.246, 377.250 147.405, 367.789 140.603 C 365.572 139.010, 362.928 136.297, 361.911 134.574 C 360.895 132.851, 358.175 130.330, 355.867 128.971 C 353.558 127.612, 350.507 125.218, 349.085 123.651 C 345.775 120.002, 336.079 112, 334.967 112 C 334.500 112, 333.865 112.409, 333.556 112.910 M 253.678 113.656 C 252.278 115.055, 253.130 115.856, 257.656 117.399 C 261.299 118.640, 262.626 118.725, 263.753 117.790 C 264.951 116.795, 264.631 116.401, 261.846 115.440 C 255.379 113.209, 254.349 112.984, 253.678 113.656 M 283.223 115.557 C 280.551 117.428, 280.343 119, 282.766 119 C 283.737 119, 287.675 120.841, 291.516 123.090 C 302.696 129.637, 302.936 129.516, 294.500 121.582 C 290.100 117.443, 286.263 114.045, 285.973 114.029 C 285.682 114.013, 284.445 114.701, 283.223 115.557 M 208.756 118.735 C 205.198 119.016, 203.731 119.633, 202.890 121.206 C 201.915 123.027, 202.002 123.213, 203.551 122.619 C 204.532 122.242, 208.072 121.695, 211.417 121.403 C 214.763 121.111, 218.625 120.611, 220 120.292 L 222.500 119.713 220 118.956 C 217.359 118.157, 216.337 118.137, 208.756 118.735 M 276.048 122.442 C 275.138 123.538, 277.885 125.355, 290.272 131.849 C 306.235 140.217, 310.669 143.535, 311.191 147.502 L 311.500 149.849 313.917 147.879 L 316.335 145.908 311.417 140.903 C 305.019 134.391, 277.885 120.228, 276.048 122.442 M 223.500 122.959 C 221.850 123.387, 215.375 124.807, 209.112 126.114 C 199.858 128.046, 197.444 128.919, 196.227 130.777 C 194.172 133.912, 195.012 134.313, 199.596 132.383 C 204.826 130.183, 214.771 128.149, 224.117 127.370 C 230.201 126.862, 233.858 127.203, 241.895 129.025 C 251.306 131.159, 254.689 131.185, 252.433 129.107 C 250.944 127.734, 231.752 121.986, 229 122.088 C 227.625 122.139, 225.150 122.531, 223.500 122.959 M 170.205 130.060 C 157.051 136.636, 148.812 143.121, 146.459 148.751 C 144.321 153.870, 144.537 153.874, 149.750 148.813 C 155.160 143.559, 161.463 139.447, 174.833 132.445 C 184.117 127.584, 188.091 124, 184.198 124 C 183.169 124, 176.872 126.727, 170.205 130.060 M 268.980 129.524 C 268.284 130.362, 267.892 131.201, 268.107 131.387 C 269.650 132.719, 303.383 148.950, 303.781 148.552 C 304.817 147.516, 301.566 144.952, 290.687 138.225 C 281.558 132.580, 272.561 128, 270.602 128 C 270.406 128, 269.676 128.686, 268.980 129.524 M 229 132.919 C 228.175 133.391, 224.718 134.093, 221.318 134.479 C 217.917 134.865, 214.349 135.756, 213.387 136.459 C 211.751 137.655, 211.778 137.811, 213.811 138.899 C 216.892 140.548, 245.908 138.502, 247.928 136.493 C 249.683 134.747, 249.373 134.625, 239.307 133.094 C 230.864 131.810, 230.937 131.811, 229 132.919 M 264.409 135.147 C 263.431 136.730, 264.786 137.548, 274.650 141.334 C 279.683 143.265, 285.308 145.621, 287.150 146.568 C 292.839 149.494, 301.998 157.027, 302.033 158.808 C 302.060 160.168, 302.461 160.027, 304.075 158.088 L 306.083 155.676 299.792 152.031 C 290.466 146.629, 273.033 137.432, 268.772 135.666 C 266.323 134.651, 264.826 134.473, 264.409 135.147 M 166.564 141.292 C 159.052 145.229, 154.773 148.330, 149.026 154 C 141.923 161.008, 133.104 173.437, 134.351 174.684 C 134.655 174.989, 141.338 168.698, 149.202 160.706 C 161.283 148.427, 164.584 145.652, 170.492 142.808 C 174.517 140.871, 177.624 138.713, 177.815 137.721 C 177.997 136.775, 177.776 136.019, 177.323 136.042 C 176.870 136.065, 172.029 138.427, 166.564 141.292 M 260.500 141 C 260.840 141.550, 261.568 142, 262.118 142 C 262.668 142, 262.840 141.550, 262.500 141 C 262.160 140.450, 261.432 140, 260.882 140 C 260.332 140, 260.160 140.450, 260.500 141 M 191.023 143.250 C 187.984 145.339, 183 152.702, 183 155.103 C 183 156.320, 187.900 152.746, 191.709 148.750 C 193.151 147.238, 194.748 146, 195.258 146 C 196.751 146, 200.992 142.326, 200.299 141.633 C 198.939 140.272, 194.137 141.109, 191.023 143.250 M 227 144.978 C 222.875 145.926, 218.015 146.481, 216.200 146.212 C 213.629 145.830, 212.303 146.281, 210.200 148.251 C 208.715 149.642, 205.700 151.686, 203.500 152.792 C 201.300 153.899, 198.502 155.861, 197.283 157.152 C 196.064 158.444, 193.027 161.621, 190.533 164.213 C 185.702 169.235, 185.099 170.717, 187.510 171.642 C 189.058 172.236, 194.037 168.996, 199.668 163.729 C 201.411 162.099, 203.714 160.256, 204.786 159.633 C 205.858 159.010, 207.910 157.667, 209.345 156.650 C 210.780 155.632, 213.428 154.399, 215.227 153.910 C 217.027 153.420, 223.361 151.732, 229.302 150.159 C 237.107 148.091, 240.521 146.702, 241.608 145.149 C 243.081 143.046, 243.021 143.003, 238.807 143.127 C 236.438 143.197, 231.125 144.029, 227 144.978 M 332.500 147.305 L 329.500 150.231 334 154.113 C 336.475 156.248, 338.811 157.996, 339.190 157.997 C 339.570 157.999, 343.746 163.382, 348.471 169.960 C 357.588 182.652, 358.490 183.635, 359.506 181.990 C 360.131 180.978, 348.699 164.153, 342.544 157.025 C 338.404 152.230, 336.796 149.235, 338.125 148.792 C 338.730 148.590, 338.395 147.577, 337.339 146.410 L 335.500 144.380 332.500 147.305 M 255.035 146.934 C 253.555 149.700, 253.702 150, 256.531 150 C 259.411 150, 261.003 147.249, 258.896 145.914 C 256.842 144.614, 256.184 144.788, 255.035 146.934 M 161.889 155.762 C 156.132 161.118, 147.726 168.843, 143.210 172.928 C 138.695 177.013, 135 180.881, 135 181.523 C 135 182.165, 134.099 183.505, 132.998 184.502 C 130.860 186.436, 126 194.592, 126 196.244 C 126 196.790, 124.762 198.706, 123.250 200.503 C 121.737 202.299, 118.925 206.389, 117 209.592 C 115.075 212.794, 111.648 217.691, 109.385 220.474 C 102.832 228.531, 100.329 234.418, 99.796 243.023 L 99.329 250.547 122.380 250.733 C 139.499 250.872, 145.629 250.609, 146.200 249.710 C 146.623 249.045, 146.976 246.989, 146.985 245.143 C 146.996 242.670, 146.631 241.928, 145.598 242.324 C 143.097 243.284, 143.062 241.881, 145.429 235.593 C 146.708 232.195, 148.091 227.420, 148.503 224.980 C 149.210 220.799, 149.150 220.630, 147.464 222.023 C 146.481 222.835, 144.850 224.850, 143.842 226.500 C 142.354 228.934, 142.013 229.122, 142.036 227.500 C 142.088 223.906, 145.466 215.613, 149.163 210 C 151.156 206.975, 153.089 202.925, 153.458 201 C 153.982 198.268, 152.149 200.509, 145.107 211.206 C 138.470 221.287, 135.508 226.841, 133.903 232.206 C 131.144 241.434, 130.300 243.052, 128.593 242.397 C 127.447 241.957, 127.425 241.082, 128.461 237.184 C 130.212 230.602, 138.658 214.169, 145.949 203.158 C 151.538 194.718, 153.070 190.500, 150.548 190.500 C 149.543 190.500, 141.876 201.186, 136.555 210 C 134.730 213.025, 130.968 219.267, 128.196 223.872 C 125.424 228.476, 123.387 232.845, 123.669 233.580 C 124.360 235.381, 122.110 242, 120.806 242 C 120.217 242, 119.990 240.834, 120.281 239.310 L 120.795 236.620 118.920 239.060 C 117.888 240.402, 117.034 241.838, 117.022 242.250 C 116.978 243.736, 114 242.963, 114 241.465 C 114 238.990, 124.532 220.336, 132.047 209.500 C 135.861 204, 138.986 199.162, 138.991 198.750 C 139.011 197.065, 137.246 198.165, 136.182 200.500 C 135.555 201.875, 134.246 203.018, 133.271 203.041 C 130.270 203.110, 119.216 216.369, 112.441 228.025 C 108.899 234.121, 106 239.479, 106 239.932 C 106 240.385, 105.330 241.311, 104.512 241.990 C 100.526 245.298, 102.904 235.417, 107.815 228.268 C 112.195 221.890, 124.891 202.152, 127.394 197.828 C 130.816 191.917, 148.853 172.111, 160.933 161 C 169.142 153.449, 173.906 147.572, 172.753 146.419 C 172.536 146.202, 167.647 150.407, 161.889 155.762 M 122.412 157.250 C 116.449 163.237, 113.902 166.582, 113.125 169.444 C 112.536 171.613, 112.203 173.536, 112.384 173.717 C 112.565 173.899, 115.424 170.549, 118.738 166.274 C 122.051 161.998, 125.761 157.601, 126.983 156.502 C 129.396 154.333, 132.493 149, 131.340 149 C 130.949 149, 126.931 152.713, 122.412 157.250 M 233.687 154.647 C 233.331 155.002, 229.397 155.613, 224.945 156.005 C 216.948 156.708, 216.787 156.777, 211.675 161.690 C 208.829 164.425, 204.475 168.192, 202 170.062 C 197.305 173.608, 195.828 175.260, 192.500 180.690 C 191.400 182.484, 187.666 188.072, 184.202 193.107 C 178.243 201.770, 177.921 202.536, 178.202 207.371 C 178.429 211.256, 178.911 212.559, 180.214 212.807 C 181.407 213.034, 182.110 212.277, 182.525 210.316 C 185.092 198.186, 192.239 186.511, 204.554 174.326 C 212.750 166.218, 214.257 165.306, 225.713 161.523 C 231.574 159.587, 234.105 158.244, 234.554 156.830 C 235.222 154.727, 234.763 153.571, 233.687 154.647 M 248.988 155.412 C 247.132 157.268, 247.998 158.777, 251.250 159.358 C 253.037 159.677, 258.507 160.424, 263.404 161.017 C 272.512 162.119, 274.993 162.937, 278.500 165.993 C 279.600 166.951, 282.921 169.376, 285.881 171.380 C 290.843 174.742, 291.359 174.891, 292.523 173.300 C 293.601 171.826, 293.253 170.924, 290.142 167.124 C 284.568 160.314, 274.430 156.526, 257.992 155.114 C 253.086 154.692, 249.592 154.808, 248.988 155.412 M 322 157.312 C 322 158.590, 324.680 160.877, 332.172 165.993 C 337.199 169.426, 341.469 175.036, 346.209 184.437 L 350.210 192.373 352.083 189.937 C 354.560 186.714, 354.486 185.979, 351.250 181.608 C 343.971 171.777, 335.951 163.324, 330.595 159.841 C 324.415 155.821, 322 155.111, 322 157.312 M 178.342 164.564 C 176.941 167.624, 176.076 170.410, 176.420 170.754 C 177.251 171.584, 187 161.940, 187 160.288 C 187 159.518, 185.770 159, 183.945 159 C 181.209 159, 180.623 159.582, 178.342 164.564 M 295.896 163.341 C 297.559 165.003, 298.150 165.121, 299.445 164.045 C 301.794 162.096, 301.346 161.508, 297.448 161.423 C 293.904 161.346, 293.903 161.348, 295.896 163.341 M 243.576 164.854 C 242.709 166.529, 242 168.148, 242 168.450 C 242 168.753, 243.942 169, 246.316 169 C 258.944 169, 269.766 173.729, 278.936 183.254 C 283.296 187.783, 283.573 187.914, 284.757 186.018 C 286.812 182.727, 286.238 181.366, 280.750 176.512 C 272.932 169.597, 268.285 167.214, 258.418 165.059 C 253.513 163.987, 248.522 162.817, 247.326 162.458 C 245.591 161.938, 244.833 162.422, 243.576 164.854 M 360.633 170.835 C 363.807 177.143, 366.667 179.593, 366.360 175.741 C 366.204 173.797, 360.147 165.350, 358.390 164.627 C 357.779 164.376, 358.788 167.169, 360.633 170.835 M 122.963 168.881 C 113.324 179.444, 108.157 186.649, 107.459 190.500 C 107.061 192.700, 106.954 194.275, 107.223 194 C 113.610 187.453, 125.827 171.604, 126.685 168.750 C 127.305 166.688, 127.517 165.001, 127.156 165.002 C 126.795 165.004, 124.908 166.749, 122.963 168.881 M 219.647 167.297 C 214.934 169.040, 211.961 171.260, 204.370 178.704 C 195.976 186.936, 194.404 189.069, 189.990 198.223 C 184.428 209.759, 182.659 217, 185.404 217 C 186.316 217, 187.324 216.213, 187.643 215.250 C 189.829 208.657, 201.261 188.061, 205.220 183.585 C 210.747 177.334, 218.013 172.427, 223.130 171.488 C 225.640 171.028, 227.105 170.064, 227.880 168.364 C 228.496 167.012, 229 165.702, 229 165.453 C 229 164.486, 225.250 165.225, 219.647 167.297 M 311.196 168.298 C 307.623 171.984, 307.207 174.097, 309.655 176.128 C 310.565 176.882, 313.640 181.100, 316.487 185.500 C 319.335 189.900, 323.878 196.469, 326.583 200.098 C 329.287 203.727, 332.267 208.114, 333.203 209.848 C 334.140 211.582, 335.288 213, 335.754 213 C 336.220 213, 337.599 210.946, 338.819 208.436 C 341.029 203.886, 341.030 203.858, 339.135 199.686 C 338.090 197.384, 333.790 190.775, 329.579 185 C 325.369 179.225, 320.479 172.371, 318.712 169.768 C 316.946 167.165, 315.251 165.028, 314.946 165.018 C 314.642 165.008, 312.954 166.484, 311.196 168.298 M 323 168.954 C 323 171.522, 327.891 178.680, 331.557 181.476 C 333.568 183.009, 337.383 187.588, 340.035 191.651 C 342.688 195.715, 345.131 198.597, 345.465 198.056 C 346.302 196.703, 332.954 177.353, 327.472 171.973 C 325.013 169.559, 323 168.200, 323 168.954 M 158.363 176.842 C 152.708 185.238, 151.977 188, 155.411 188 C 156.477 188, 162.502 173.149, 161.736 172.411 C 161.606 172.286, 160.088 174.280, 158.363 176.842 M 175.603 176.540 C 173.447 178.696, 170 185.456, 170 187.528 C 170 190.336, 175.407 185.641, 177.488 181.026 C 179.611 176.318, 178.491 173.652, 175.603 176.540 M 239.500 177.724 C 236.646 178.425, 235 179.976, 235 181.964 C 235 183.458, 235.622 183.581, 239.750 182.901 C 242.363 182.471, 246.611 182.092, 249.191 182.060 C 255.169 181.984, 256.111 180.491, 251.418 178.530 C 247.835 177.033, 243.502 176.740, 239.500 177.724 M 181.831 180.750 C 178.574 184.602, 169.799 199.316, 168.394 203.281 C 166.195 209.483, 161 230.576, 159.965 237.500 C 159.472 240.800, 159.324 245.112, 159.635 247.082 L 160.202 250.664 186.983 250.796 L 213.765 250.927 214.382 247.838 C 215.315 243.174, 215.230 243, 212 243 C 209.667 243, 209 243.444, 209 245 C 209 246.171, 208.333 247, 207.392 247 C 206.233 247, 205.932 246.371, 206.315 244.750 C 206.608 243.512, 207.585 237.100, 208.486 230.500 C 209.387 223.900, 210.523 217.262, 211.010 215.750 C 211.497 214.238, 211.706 213, 211.474 213 C 209.746 213, 204.463 230.816, 203.786 238.923 C 203.629 240.806, 202.938 242.531, 202.250 242.756 C 200.432 243.353, 200.621 231.874, 202.552 224.460 C 204.530 216.867, 211.416 201.125, 214.892 196.249 C 217.578 192.482, 221.311 183.978, 220.594 183.261 C 220.383 183.050, 218.624 184.270, 216.684 185.972 C 214.258 188.103, 210.954 193.578, 206.084 203.536 C 198.007 220.054, 197.058 223.322, 197.024 234.750 C 197.003 242.074, 196.794 243, 195.167 243 C 194.158 243, 193.105 242.771, 192.825 242.492 C 192.362 242.029, 193.713 230.931, 195.532 220.250 C 196.435 214.944, 194.509 214.468, 191.053 219.143 C 189.119 221.758, 188.626 223.978, 188.115 232.382 C 187.576 241.237, 187.266 242.523, 185.600 242.841 C 183.860 243.174, 183.755 242.743, 184.345 237.720 C 184.832 233.578, 184.640 231.946, 183.562 231.051 C 182.417 230.101, 181.826 230.336, 180.581 232.235 C 179.728 233.538, 178.734 236.082, 178.372 237.888 C 177.760 240.952, 175.631 242.965, 174.355 241.688 C 174.048 241.381, 174.558 238.837, 175.488 236.035 C 176.419 233.233, 177.518 228.456, 177.930 225.419 C 178.563 220.756, 178.415 219.757, 176.978 218.988 C 175.870 218.395, 174.722 218.500, 173.688 219.289 C 172.052 220.537, 167.682 232.614, 166.465 239.250 C 165.753 243.133, 164.369 244.124, 163.354 241.479 C 162.525 239.319, 175.373 200.332, 180.614 189.104 C 183.026 183.936, 185 179.549, 185 179.354 C 185 178.382, 183.139 179.202, 181.831 180.750 M 302.002 180.498 C 299.732 183.232, 301.953 186.833, 312.299 197.195 C 317.958 202.863, 324.566 210.537, 326.984 214.250 C 329.402 217.963, 331.696 221, 332.083 221 C 333.540 221, 334 217.638, 332.775 215.939 C 332.074 214.966, 328.834 210.271, 325.575 205.505 C 320.220 197.675, 306.437 181.006, 304.146 179.590 C 303.640 179.278, 302.675 179.686, 302.002 180.498 M 115.872 189.750 C 109.744 196.362, 104.406 203.989, 103.622 207.250 C 102.634 211.364, 103.633 210.620, 107.652 204.250 C 109.647 201.088, 112.295 197.600, 113.535 196.500 C 115.687 194.591, 121.690 185, 120.732 185 C 120.480 185, 118.293 187.137, 115.872 189.750 M 233.313 187.707 C 232.190 188.495, 230 193.245, 230 194.891 C 230 195.310, 233.037 194.617, 236.750 193.352 C 240.463 192.087, 244.690 191.040, 246.145 191.026 C 249.666 190.991, 261.342 194.642, 267.217 197.614 C 272.739 200.408, 275.814 200.648, 276.694 198.355 C 277.612 195.964, 274.834 194.335, 264 190.915 C 254.232 187.830, 235.869 185.911, 233.313 187.707 M 366.501 192.201 C 366.074 193.273, 366.739 195.122, 368.300 197.201 C 369.992 199.455, 370.769 201.769, 370.752 204.506 C 370.732 207.694, 371.854 210.248, 376.242 217.006 C 379.275 221.678, 383.204 228.383, 384.972 231.907 C 387.078 236.104, 388.455 237.882, 388.962 237.062 C 390.178 235.094, 386.277 226.143, 381.340 219.575 C 376.093 212.596, 373.824 208.509, 374.707 207.627 C 376.426 205.907, 378.305 207.649, 382.007 214.396 C 384.240 218.463, 387.428 223.671, 389.092 225.969 C 391.565 229.382, 392.382 229.928, 393.556 228.953 C 394.788 227.931, 394.624 227.080, 392.413 223.018 C 389.250 217.206, 378.927 203.422, 372.178 196 C 368.094 191.508, 367.054 190.812, 366.501 192.201 M 376.751 195.322 C 377.934 196.874, 381.061 199.749, 383.701 201.709 L 388.500 205.274 383.954 200.887 C 381.454 198.474, 378.326 195.600, 377.004 194.500 L 374.600 192.500 376.751 195.322 M 247.500 197.970 C 245.850 198.406, 242.638 198.817, 240.363 198.882 C 237.497 198.964, 234.733 199.998, 231.366 202.250 C 226.337 205.613, 224.821 208.392, 223.534 216.611 L 222.925 220.500 225.867 214.970 C 228.563 209.904, 229.410 209.170, 235.971 206.220 C 244.451 202.408, 249.732 202.120, 257.239 205.061 C 265.808 208.419, 273.226 210.174, 274.302 209.098 C 276.152 207.248, 274.095 205.180, 268.319 203.086 C 265.118 201.925, 261.375 200.348, 260 199.580 C 256.644 197.705, 251.167 197, 247.500 197.970 M 358.288 200.911 C 357.339 202.430, 357.372 202.929, 358.449 203.342 C 360.161 203.999, 361 203.174, 361 200.833 C 361 198.460, 359.797 198.494, 358.288 200.911 M 302 201.969 C 302 203.090, 307.711 210.274, 315.250 218.637 C 326.284 230.877, 328.555 232.959, 328.830 231.085 C 329.012 229.847, 328.504 228.085, 327.701 227.168 C 326.898 226.250, 325.481 224, 324.552 222.166 C 323.622 220.333, 320.531 216.183, 317.681 212.944 C 314.831 209.706, 311.218 205.469, 309.652 203.528 C 306.397 199.497, 302 198.601, 302 201.969 M 293.667 207.667 C 291.745 209.588, 293.747 213.028, 301.354 220.879 C 305.949 225.620, 311.880 232.200, 314.534 235.500 C 319.125 241.210, 319.247 241.516, 317.051 241.836 C 315.413 242.075, 313.403 240.885, 310.122 237.733 C 307.580 235.291, 304.528 232.651, 303.340 231.866 C 302.152 231.080, 299.081 227.646, 296.516 224.233 C 291.302 217.297, 287.067 213.533, 285.847 214.753 C 285.402 215.198, 284.760 216.951, 284.420 218.649 C 283.870 221.399, 284.123 221.847, 286.734 222.757 C 288.346 223.319, 290.753 225.255, 292.083 227.060 C 293.412 228.864, 296.863 232.662, 299.750 235.500 C 305.469 241.122, 306.218 242.996, 302.750 243.008 C 301.340 243.013, 299.006 241.343, 296.500 238.536 C 292.685 234.264, 283.099 229.235, 281.609 230.724 C 280.007 232.326, 281.404 234.931, 285.519 238.014 C 288.582 240.309, 289.629 241.625, 288.769 242.100 C 288.071 242.486, 281.650 242.698, 274.500 242.572 L 261.500 242.343 258.156 237.921 C 252.705 230.715, 246.672 229.092, 242.414 233.687 C 240.541 235.709, 240.071 237.048, 240.520 239.092 C 241.280 242.551, 239.226 244.012, 237.272 241.403 C 235.464 238.987, 236.194 232.549, 238.574 229.918 C 239.533 228.859, 242.046 227.526, 244.159 226.957 C 250.020 225.379, 255.331 227.255, 261.487 233.076 C 264.351 235.784, 266.938 238, 267.237 238 C 267.536 238, 267.967 236.411, 268.193 234.469 C 268.573 231.220, 268.203 230.631, 263.553 227.072 C 256.632 221.776, 249.857 219.562, 245.236 221.087 C 239.482 222.986, 234.193 228.530, 232.465 234.472 C 231.630 237.345, 231.249 240.485, 231.619 241.450 C 232.137 242.799, 231.855 243.114, 230.396 242.819 C 228.748 242.486, 228.519 241.579, 228.644 235.872 C 228.847 226.657, 231.162 222.929, 240.984 216 C 242.886 214.658, 242.959 214.295, 241.676 212.555 C 240.366 210.779, 239.874 210.721, 235.993 211.884 C 227.916 214.304, 224.654 220.565, 223.294 236.260 C 222.822 241.713, 222.398 242.970, 221.104 242.760 C 219.888 242.563, 219.427 243.494, 219.199 246.612 L 218.898 250.724 247.449 250.721 C 270.838 250.718, 276 250.471, 276 249.359 C 276 247.519, 278.643 247.628, 279.360 249.496 C 279.849 250.770, 283.349 250.974, 302.856 250.866 L 325.777 250.740 326.435 245.776 C 327.245 239.675, 326.748 238.946, 309.044 220.259 C 297.120 207.673, 295.218 206.116, 293.667 207.667 M 352.620 208.805 C 352.287 209.344, 353.186 212.421, 354.617 215.642 C 356.885 220.749, 363.574 238.690, 364.257 241.500 C 364.391 242.050, 362.203 242.634, 359.396 242.797 C 354.754 243.067, 354.127 242.841, 352.474 240.297 C 349.295 235.404, 344.539 230.037, 343.367 230.018 C 340.948 229.980, 341.028 234.472, 343.508 237.966 C 346.104 241.622, 345.539 243.805, 342.317 242.568 C 341.318 242.185, 340.275 241.813, 340 241.742 C 339.725 241.671, 339.240 242.938, 338.922 244.557 L 338.344 247.500 337.036 244.802 C 335.911 242.485, 335.287 242.188, 332.613 242.696 C 330.901 243.021, 329.342 243.418, 329.149 243.578 C 328.956 243.738, 329.980 245.419, 331.425 247.313 L 334.052 250.757 360.026 250.899 C 385.467 251.037, 386 250.999, 386 249.020 C 386 246.414, 387.610 246.400, 388.290 249 C 388.595 250.167, 389.654 251, 390.832 251 C 392.800 251, 392.809 250.899, 391.176 247.055 C 390.254 244.885, 388.825 242.921, 388 242.691 C 387.175 242.461, 385.603 240.524, 384.506 238.386 C 380.650 230.873, 374.658 220.481, 373.182 218.750 C 368.746 213.546, 370.244 219.344, 376.984 233.466 C 379.273 238.262, 380.890 242.443, 380.577 242.756 C 380.264 243.069, 378.906 242.822, 377.558 242.208 C 375.869 241.439, 374.764 239.758, 373.999 236.796 C 372.706 231.786, 365.238 216.443, 363.317 214.848 C 360.653 212.637, 361.949 219.065, 365.087 223.626 C 366.784 226.093, 369.034 231.123, 370.087 234.803 C 372.348 242.709, 372.373 243.020, 370.750 242.934 C 369.370 242.861, 361.368 226.893, 357.394 216.279 C 354.657 208.973, 353.570 207.270, 352.620 208.805 M 105.300 214.514 C 103.541 217.266, 101.819 221.539, 101.475 224.009 L 100.849 228.500 104.984 222.195 C 108.072 217.486, 109.040 215.082, 108.809 212.700 L 108.500 209.509 105.300 214.514 M 390.129 213.257 C 391.066 215.019, 395.117 221.592, 396.684 223.893 C 397.283 224.771, 400 221.635, 400 220.065 C 400 218.037, 395.578 213.835, 391.719 212.196 C 389.028 211.053, 388.976 211.087, 390.129 213.257 M 254.303 213.654 C 253.663 215.319, 255.610 217.377, 264.757 224.705 C 269.121 228.201, 270 228.073, 270 223.942 C 270 221.895, 269.399 221.066, 267.586 220.611 C 266.258 220.278, 263.746 218.204, 262.002 216.003 C 258.694 211.826, 255.391 210.818, 254.303 213.654 M 349 216.948 C 349 218.534, 353.924 233.396, 354.981 235 C 355.770 236.197, 355.972 235.995, 355.985 234.003 C 356.005 230.641, 351.072 216, 349.918 216 C 349.413 216, 349 216.427, 349 216.948 M 246.500 240 C 245.368 241.832, 247.077 243, 250.892 243 C 255.461 243, 256.555 242.143, 254.234 240.381 C 252.177 238.818, 247.377 238.582, 246.500 240 M 90.614 245.401 C 87.530 251.900, 89.202 253.047, 93.515 247.392 C 95.734 244.482, 95.999 243.613, 94.884 242.907 C 92.727 241.541, 92.337 241.769, 90.614 245.401 M 154.873 242.734 C 153.380 243.069, 151.411 249.745, 152.488 250.821 C 153.712 252.045, 155.831 249.715, 156.438 246.478 C 157.211 242.356, 157.155 242.221, 154.873 242.734 M 99.328 275.232 C 100.649 302.653, 106.896 331.257, 117.528 358.569 C 122.171 370.498, 124 373.936, 124 370.735 C 124 367.493, 127.547 367, 150.876 367 L 173.883 367 168.358 355.250 C 163.132 344.136, 154 318.881, 154 315.542 C 154 314.231, 152.041 314, 140.934 314 C 133.748 314, 126.998 313.534, 125.934 312.965 C 123.325 311.568, 123.325 306.432, 125.934 305.035 C 126.998 304.466, 133.073 304, 139.434 304 C 145.795 304, 151 303.633, 151 303.184 C 151 302.735, 150.504 299.697, 149.897 296.434 C 149.290 293.170, 148.272 284.200, 147.635 276.500 L 146.476 262.500 122.582 262.232 L 98.688 261.963 99.328 275.232 M 159 269.928 C 159 277.934, 160.205 289.113, 162.106 298.750 L 163.142 304 187.571 304 C 201.007 304, 212 303.825, 212 303.610 C 212 303.396, 211.145 299.008, 210.101 293.860 C 209.056 288.712, 207.907 280.675, 207.548 276 C 207.189 271.325, 206.658 266.262, 206.368 264.750 L 205.841 262 182.421 262 L 159 262 159 269.928 M 218.584 262.864 C 217.689 264.312, 219.839 283.886, 222.006 294.027 C 223.103 299.160, 224 303.503, 224 303.679 C 224 303.856, 235.259 304, 249.019 304 L 274.038 304 273.381 301.250 C 273.019 299.738, 272.389 297.825, 271.981 297 C 270.375 293.752, 267.781 280.039, 267.157 271.500 L 266.500 262.500 242.820 262.232 C 229.549 262.082, 218.896 262.360, 218.584 262.864 M 278.407 269.750 C 279.120 277.829, 282.936 294.518, 285.444 300.520 L 286.898 304 312.962 304 L 339.025 304 335.605 297.208 C 331.097 288.257, 328.373 279.760, 326.876 269.985 L 325.654 262 301.689 262 L 277.724 262 278.407 269.750 M 166 314.971 C 166 319.581, 176.938 347.802, 183.549 360.250 L 187.134 367 214.567 367 C 229.655 367, 242 366.856, 242 366.680 C 242 366.504, 239.563 362.656, 236.585 358.129 C 229.671 347.620, 224.046 336.790, 219.042 324.354 L 215.077 314.500 190.539 314.233 C 174.579 314.059, 166 314.317, 166 314.971 M 228.415 316.750 C 229.670 322.216, 244.129 349.699, 250.243 358.243 L 256.500 366.985 288.205 366.993 L 319.910 367 310.332 357.750 C 299.375 347.168, 288.317 332.840, 282.500 321.689 L 278.500 314.022 253.142 314.011 L 227.783 314 228.415 316.750 M 292 314.766 C 292 316.221, 299.649 328.616, 303.901 334.048 C 309.689 341.446, 321.035 353.159, 322.059 352.795 C 323.131 352.414, 353.847 325.056, 354.636 323.780 C 354.965 323.248, 353.287 320.830, 350.908 318.407 L 346.584 314 319.292 314 C 304.281 314, 292 314.345, 292 314.766 M 439 366.687 C 425.859 374.480, 405.464 392.661, 394.927 405.976 C 389.709 412.571, 381.583 425.597, 379.628 430.500 C 379.409 431.050, 378.480 430.600, 377.563 429.500 C 375.930 427.540, 375.911 427.551, 376.604 430 C 376.994 431.375, 377.266 434.692, 377.210 437.371 C 377.121 441.626, 376.246 443.555, 370.304 452.604 C 363.271 463.313, 360.837 465.067, 358.999 460.750 C 358.472 459.512, 356.647 453.100, 354.943 446.500 C 348.184 420.319, 347.396 418.648, 342.939 421.032 C 341.886 421.596, 340.809 423.057, 340.547 424.279 C 340.011 426.773, 336 459.025, 336 460.836 C 336 461.676, 331.247 462, 318.934 462 C 309.083 462, 301.051 462.438, 299.934 463.035 C 297.027 464.591, 297.409 468.825, 300.565 470.025 C 301.976 470.561, 311.221 471, 321.111 471 C 338.663 471, 339.147 470.944, 341.447 468.644 C 343.346 466.745, 343.944 464.760, 344.534 458.394 C 345.705 445.768, 346.320 445.606, 349.340 457.129 C 350.832 462.823, 352.669 468.098, 353.423 468.852 C 354.177 469.606, 356.857 470.455, 359.379 470.739 C 363.228 471.173, 364.077 470.955, 364.667 469.378 C 365.053 468.345, 368.753 462.405, 372.888 456.177 L 380.406 444.854 384.453 445.061 C 390.751 445.384, 392.469 445.116, 394.559 443.486 C 395.626 442.653, 396.050 442.031, 395.500 442.104 C 392.539 442.497, 392.956 441.749, 396.627 440.082 C 402.185 437.558, 402.649 436.385, 397.912 436.837 C 391.790 437.421, 389.493 435.849, 395.141 434.942 C 400.547 434.074, 405.440 431.868, 409.090 428.652 C 414.523 423.867, 445.859 385.205, 448.524 380 C 450.979 375.204, 451.012 368.777, 448.595 366.105 C 446.110 363.359, 444.442 363.460, 439 366.687 M 197.585 383.750 C 207.210 397.399, 214.991 406.777, 226.298 418.359 L 237.876 430.218 247.688 421.413 C 265.668 405.278, 271 400.233, 270.991 399.363 C 270.985 398.888, 267.351 394.900, 262.913 390.500 C 258.476 386.100, 253.949 381.262, 252.855 379.750 L 250.864 377 221.844 377 L 192.824 377 197.585 383.750 M 420.878 390.750 C 409.170 402.808, 400.107 413.526, 388.536 429 C 384.217 434.775, 380.250 440.063, 379.720 440.750 C 379.098 441.555, 379.103 442, 379.732 442 C 380.269 442, 384.980 436.262, 390.201 429.250 C 401.694 413.812, 413.769 399.325, 424.375 388.250 C 428.720 383.712, 432.060 380, 431.796 380 C 431.532 380, 426.619 384.837, 420.878 390.750" stroke="none" fill="black" fill-rule="evenodd"/>
</svg>