<svg xmlns="http://www.w3.org/2000/svg" width="50" height="50" viewBox="0 0 50 50" version="1.1">
	<path d="M 15.632 7.117 C 6.838 17.390, 6.788 33.769, 15.520 43.654 C 17.388 45.770, 18.935 47.007, 18.958 46.405 C 18.981 45.803, 18.052 44.453, 16.894 43.405 C 11.500 38.527, 8.645 26.685, 10.876 18.441 C 12.194 13.569, 17.674 5, 19.472 5 C 20.178 5, 21.259 5.607, 21.874 6.348 C 22.730 7.380, 22.490 8.143, 20.851 9.598 C 13.010 16.561, 13.092 34.344, 21 41.500 C 22.839 43.165, 23.094 43.168, 25.542 41.565 L 28.135 39.866 25.655 36.614 C 22.395 32.340, 20.868 26.417, 21.883 21.976 C 23.486 14.955, 26.928 10.865, 29.462 12.969 C 30.728 14.019, 30.627 14.585, 28.712 17.175 C 25.486 21.539, 25.598 29.879, 28.930 33.425 L 31.359 36.011 33.640 33.868 C 35.708 31.926, 35.785 31.531, 34.461 29.640 C 32.607 26.994, 32.639 23.061, 34.536 20.554 C 36.573 17.859, 38.539 19.960, 38.155 24.422 C 37.995 26.279, 38.363 28.106, 38.972 28.483 C 39.730 28.951, 39.874 28.347, 39.428 26.571 C 39.064 25.119, 39.274 23.374, 39.906 22.613 C 40.787 21.551, 40.444 20.866, 38.340 19.487 C 35.706 17.761, 35.601 17.775, 33.738 20.076 C 31.900 22.345, 31.827 23.782, 33.160 31.462 C 33.376 32.711, 32.858 33.556, 31.731 33.789 C 30.473 34.048, 29.511 33.074, 28.400 30.415 C 26.565 26.023, 27.164 21.332, 30.026 17.694 C 32.574 14.454, 32.513 13.566, 29.610 11.664 C 27.422 10.230, 27.090 10.243, 25.665 11.817 C 23.282 14.451, 20.047 22.171, 20.022 25.282 C 19.996 28.539, 22.392 34.670, 24.676 37.195 C 25.992 38.648, 26.048 39.237, 24.995 40.506 C 23.846 41.891, 23.507 41.867, 21.715 40.275 C 16.542 35.678, 14.431 23.999, 17.463 16.743 C 18.268 14.817, 20.122 11.820, 21.584 10.083 C 24.145 7.039, 24.177 6.853, 22.466 4.962 C 21.489 3.883, 20.345 3, 19.923 3 C 19.501 3, 17.570 4.852, 15.632 7.117" stroke="none" fill="black" fill-rule="evenodd"/>
</svg>