<svg xmlns="http://www.w3.org/2000/svg" width="512" height="512" viewBox="0 0 512 512" version="1.1">
	<path d="M 32 2.376 C 23.807 4.197, 19.113 6.805, 12.956 12.959 C 6.543 19.368, 3.540 25.179, 2.014 34.134 C 1.250 38.614, 1.013 105.363, 1.214 259.500 C 1.489 470.303, 1.570 478.692, 3.365 483.634 C 7.227 494.270, 17.367 504.200, 27.897 507.659 C 33.270 509.424, 42.607 509.500, 255.500 509.500 C 468.393 509.500, 477.730 509.424, 483.103 507.659 C 493.944 504.098, 504.098 493.944, 507.659 483.103 C 509.424 477.730, 509.500 468.393, 509.500 255.500 C 509.500 42.607, 509.424 33.270, 507.659 27.897 C 504.200 17.367, 494.270 7.227, 483.634 3.365 C 478.688 1.568, 470.422 1.494, 258 1.327 C 87.432 1.193, 36.255 1.431, 32 2.376 M 26.222 12.047 C 19.236 15.538, 14.755 20.183, 11.378 27.435 L 9.020 32.500 9.010 255.590 L 9 478.681 12.047 484.778 C 15.538 491.764, 20.183 496.245, 27.435 499.622 L 32.500 501.980 255.590 501.990 L 478.681 502 484.778 498.953 C 491.764 495.462, 496.245 490.817, 499.622 483.565 L 501.980 478.500 501.980 255.500 L 501.980 32.500 499.622 27.435 C 496.245 20.183, 491.764 15.538, 484.778 12.047 L 478.681 9 255.500 9 L 32.319 9 26.222 12.047 M 216.311 21.925 C 210.603 22.606, 208.800 23.640, 210.977 24.986 C 212.062 25.657, 211.759 26.022, 209.685 26.543 C 208.128 26.934, 206.400 26.747, 205.627 26.105 C 204.605 25.257, 202.369 25.734, 196.390 28.074 C 192.050 29.772, 187.277 31.624, 185.783 32.189 C 184.289 32.753, 182.546 33.842, 181.911 34.608 C 180.979 35.730, 181.215 36.005, 183.128 36.025 C 185.315 36.048, 185.164 36.367, 181.203 40.105 C 177.326 43.764, 176.544 44.099, 173.203 43.539 C 169.694 42.951, 169.187 43.235, 163.531 48.959 C 160.249 52.282, 157.999 54.980, 158.531 54.956 C 159.064 54.932, 161.429 54.540, 163.787 54.084 C 167.999 53.270, 168.050 53.292, 166.673 55.377 C 165.902 56.545, 164.254 57.651, 163.012 57.836 C 158.744 58.470, 141.212 71.001, 144.595 70.999 C 145.093 70.999, 147.863 70.101, 150.750 69.004 C 153.637 67.906, 156 67.255, 156 67.558 C 156 67.860, 154.762 69.689, 153.250 71.623 C 150.191 75.533, 146.208 78, 142.951 78 C 141.769 78, 139.529 79.237, 137.973 80.750 C 136.418 82.263, 133.506 85.006, 131.503 86.847 C 127.957 90.106, 127.244 92.856, 130.744 89.775 C 132.773 87.988, 143.038 82.705, 143.528 83.195 C 143.709 83.376, 142.367 85.577, 140.546 88.087 C 137.505 92.277, 133.882 95.106, 122.250 102.371 C 119.913 103.831, 118 105.694, 118 106.513 C 118 109.066, 118.718 108.691, 132.385 99 L 134.500 97.500 132.562 100.500 C 131.496 102.150, 130.105 104.499, 129.471 105.720 C 128.838 106.940, 125.638 109.729, 122.362 111.917 C 115.598 116.434, 113.540 118.507, 112.529 121.819 L 111.821 124.138 115.661 121.748 C 121.920 117.853, 122 117.820, 122 119.097 C 122 119.765, 118.779 123.390, 114.841 127.152 C 107.753 133.924, 107.701 134.012, 109.551 136.057 C 111.584 138.303, 111.496 138.437, 106 141.439 C 104.625 142.189, 100.463 145.954, 96.750 149.805 C 91.264 155.495, 90 157.408, 90 160.026 L 90 163.246 98.538 155.494 C 103.234 151.231, 107.346 148.013, 107.677 148.343 C 108.818 149.485, 105.474 154.704, 98.868 162.087 C 89.290 172.793, 87 175.650, 87 176.894 C 87 179.487, 90.167 177.587, 95.566 171.755 L 101.348 165.510 100.652 168.989 C 99.961 172.445, 98.870 174.248, 90.825 185.230 C 88.516 188.382, 86.944 191.277, 87.332 191.665 C 87.720 192.053, 89.828 190.620, 92.018 188.482 C 94.208 186.344, 96 184.954, 96 185.393 C 96 188.431, 92.150 198.338, 89.357 202.487 C 85.196 208.668, 85.052 210.282, 89 206.500 C 92.307 203.332, 92.409 203.514, 90.930 209.929 C 90.329 212.537, 88.489 215.930, 86.455 218.182 C 81.483 223.685, 81.753 227.441, 86.784 222.750 L 89.197 220.500 88.621 226.500 C 88.304 229.800, 87.758 236.606, 87.408 241.624 L 86.772 250.748 76.384 251.210 C 70.670 251.464, 65.811 251.858, 65.586 252.086 C 65.361 252.314, 65.414 253.738, 65.705 255.250 L 66.233 258 76.058 258 C 81.461 258, 86.118 258.383, 86.407 258.850 C 86.697 259.318, 87.381 267.081, 87.929 276.100 C 91.778 339.501, 116.518 399.318, 159.852 450 C 166.896 458.239, 190.236 481.980, 191.303 481.991 C 192.368 482.003, 199 476.689, 199 475.824 C 199 475.453, 193.661 469.828, 187.136 463.324 C 162.718 438.987, 146.351 417.094, 130.549 387.635 C 127.377 381.722, 124.944 376.798, 125.141 376.692 C 125.339 376.586, 137.713 376.626, 152.639 376.781 L 179.778 377.062 187.049 387.781 C 198.409 404.531, 204.099 411.289, 221.670 428.903 L 238.032 445.307 245.266 438.378 C 249.245 434.567, 260.525 424.272, 270.333 415.500 L 288.166 399.550 277.083 389.182 C 270.987 383.479, 266 378.406, 266 377.907 C 266 377.378, 284.749 377, 311 377 C 354.667 377, 356.059 376.941, 358 375 C 360.506 372.494, 360.506 371.506, 358 369 C 356.168 367.168, 354.635 366.996, 339.750 366.957 L 323.500 366.915 327.624 363.207 C 355.515 338.132, 367.826 326.914, 369.431 325.112 L 371.361 322.943 363.221 314.976 C 347.106 299.204, 338.080 280.858, 338.017 263.750 L 338 259 361.461 259 L 384.923 259 386.010 263.250 C 388.596 273.367, 391.402 278.492, 398.132 285.392 L 404.854 292.284 408.927 289.058 C 411.167 287.284, 413 285.490, 413 285.073 C 413 284.655, 410.796 282.455, 408.103 280.184 C 402.678 275.610, 398 267.402, 398 262.458 L 398 259.309 410.145 258.405 C 422.257 257.502, 422.291 257.493, 422.564 254.875 C 422.815 252.461, 422.470 252.199, 418.279 251.625 C 415.772 251.281, 410.219 251, 405.938 251 L 398.155 251 397.006 247.520 C 395.747 243.702, 396.304 241.796, 398.442 242.616 C 399.252 242.927, 400.090 242.291, 400.477 241.072 C 401.314 238.436, 403.029 238.448, 406.418 241.114 C 410.451 244.287, 410.843 242.465, 406.984 238.483 C 404.415 235.833, 403.883 234.717, 404.767 233.833 C 405.651 232.949, 407.254 233.550, 411.450 236.335 C 414.485 238.351, 417.481 240, 418.107 240 C 420.013 240, 417.263 237.344, 412.415 234.503 C 409.987 233.080, 408 231.515, 408 231.026 C 408 229.778, 412.920 226.473, 416.500 225.315 C 420.575 223.998, 421.010 220.073, 417.626 215.162 C 416.238 213.148, 409.229 205.456, 402.051 198.068 C 394.873 190.680, 389 184.027, 389 183.283 C 389 181.588, 391.684 182.889, 394.416 185.907 C 395.458 187.058, 396.827 188, 397.459 188 C 398.857 188, 405 194.195, 405 195.605 C 405 196.843, 416.879 208.454, 417.505 207.828 C 417.752 207.581, 417.177 206.281, 416.227 204.940 C 414.651 202.713, 412.787 198.447, 411.288 193.637 C 410.779 192.002, 410.971 191.914, 412.854 192.922 C 416.876 195.074, 415.011 192.349, 407.436 185.003 C 403.276 180.970, 398.973 175.906, 397.874 173.752 C 396.775 171.598, 394.605 169.106, 393.052 168.215 C 391.498 167.323, 389.679 165.716, 389.009 164.642 C 387.209 161.761, 398.174 168.134, 404.448 173.615 C 407.169 175.993, 409.606 177.727, 409.864 177.470 C 410.679 176.654, 398.625 164.340, 395.697 162.998 C 392.637 161.596, 388.007 153.989, 390.230 154.015 C 390.928 154.024, 395.650 157.399, 400.721 161.515 C 405.793 165.632, 410.406 169, 410.971 169 C 414.603 169, 408.156 161.026, 400.171 155.640 C 397.239 153.663, 393.712 150.348, 392.332 148.273 C 389.824 144.502, 362.192 117, 360.911 117 C 360.538 117, 360.005 116.127, 359.726 115.059 C 359.447 113.991, 357.707 112.480, 355.859 111.700 C 354.012 110.920, 350.123 107.969, 347.218 105.141 C 344.313 102.314, 341.388 99.980, 340.718 99.956 C 340.048 99.932, 336.575 97.910, 333 95.463 C 318.983 85.867, 313.210 82.209, 306 78.354 C 296.497 73.273, 288.074 68.171, 285.500 65.935 C 284.400 64.979, 280.575 62.881, 277 61.272 C 273.425 59.663, 268.620 57.159, 266.322 55.706 C 263.890 54.169, 256.996 51.783, 249.822 49.996 C 243.045 48.308, 235.803 46.268, 233.730 45.463 C 231.656 44.659, 229.036 44, 227.908 44 C 226.011 44, 223 41.897, 223 40.571 C 223 38.446, 239.291 41.708, 254.843 46.947 C 262.537 49.539, 265 49.581, 265 47.121 C 265 45.154, 263.153 44.155, 254.500 41.445 C 248.290 39.500, 227.072 36.958, 222.723 37.639 C 219.510 38.141, 214.791 35.875, 216.173 34.494 C 217.742 32.924, 229.226 32.825, 237.142 34.313 C 241.739 35.177, 248.506 36.167, 252.180 36.514 C 256.469 36.919, 259.611 37.795, 260.957 38.963 C 262.110 39.963, 265.161 41.097, 267.737 41.483 C 270.313 41.870, 273.512 43.044, 274.845 44.093 C 276.179 45.142, 278.075 46, 279.058 46 C 280.042 46, 282.192 47.132, 283.836 48.515 C 285.480 49.899, 289.339 52.182, 292.412 53.589 C 296.229 55.336, 298 56.727, 298 57.977 C 298 59.741, 297.815 59.738, 292.966 57.895 C 290.198 56.843, 286.260 54.937, 284.216 53.659 C 280.639 51.422, 274.695 49, 272.781 49 C 272.275 49, 272.005 49.998, 272.180 51.218 C 272.421 52.888, 274.880 54.679, 282.135 58.468 C 294.243 64.791, 306.173 71.870, 311.980 76.177 C 314.444 78.005, 318.140 80.478, 320.195 81.672 C 322.249 82.867, 327.152 86.556, 331.089 89.870 C 335.026 93.184, 339.587 96.190, 341.225 96.549 C 342.863 96.909, 345.100 98.100, 346.196 99.196 C 347.291 100.291, 349.833 102.300, 351.844 103.660 C 356.669 106.922, 371.942 120.085, 378.936 127.009 C 387.297 135.286, 398.282 145, 399.282 145 C 400.987 145, 399.428 143.005, 390.750 134.080 C 385.410 128.589, 382 124.267, 382 122.991 C 382 121.841, 381.313 119.573, 380.474 117.950 C 379 115.100, 380.078 113.655, 381.700 116.308 C 382.140 117.027, 384.413 118.546, 386.750 119.682 C 390.648 121.578, 391 121.606, 391 120.020 C 391 118.230, 379.395 107.326, 375.009 104.995 C 373.639 104.267, 371.308 102.462, 369.829 100.983 C 368.351 99.505, 365.647 97.583, 363.820 96.713 C 361.994 95.843, 358.925 93.482, 357 91.466 C 355.075 89.451, 351.250 86.346, 348.500 84.566 C 345.750 82.787, 342.873 80.570, 342.106 79.639 C 341.339 78.709, 336.839 75.865, 332.106 73.320 C 327.373 70.776, 322.600 67.891, 321.500 66.910 C 320.400 65.929, 316.463 63.705, 312.751 61.969 C 308.871 60.154, 305.123 57.578, 303.933 55.906 C 302.795 54.308, 301.361 53, 300.747 53 C 300.132 53, 296.344 50.862, 292.328 48.250 C 285.437 43.768, 283.826 41.844, 285.893 40.566 C 286.922 39.930, 313.499 53.325, 316.500 55.992 C 317.600 56.970, 319.490 58.070, 320.699 58.436 C 321.909 58.803, 325.059 61.163, 327.699 63.680 C 330.340 66.198, 333.921 68.863, 335.658 69.604 C 337.394 70.344, 339.704 72.079, 340.790 73.460 C 341.876 74.840, 344.852 76.865, 347.403 77.959 C 349.955 79.052, 352.307 80.637, 352.631 81.481 C 353.428 83.559, 367.755 95, 369.559 95 C 370.352 95, 371.792 95.788, 372.761 96.750 C 375.550 99.523, 380.192 103, 381.103 103 C 384.357 103, 372.580 89.935, 366.500 86.799 C 362.593 84.783, 361.071 83.630, 350.217 74.463 C 347.311 72.008, 344.562 70, 344.107 70 C 343.653 70, 341.306 68.268, 338.891 66.151 C 336.476 64.034, 331.350 60.158, 327.500 57.538 C 320.076 52.485, 318.202 50.398, 319.725 48.875 C 320.862 47.738, 333.063 55.526, 345 65.008 C 353.348 71.640, 366.532 81, 367.524 81 C 367.801 81, 366.845 79.212, 365.399 77.027 C 363.780 74.580, 359.766 71.147, 354.948 68.088 C 350.646 65.357, 346.349 61.937, 345.400 60.487 C 344.450 59.038, 340.935 56.007, 337.587 53.752 C 334.239 51.496, 329.665 48.164, 327.423 46.346 C 325.180 44.529, 321.710 42.359, 319.710 41.523 C 317.711 40.688, 314.595 38.720, 312.787 37.151 C 306.585 31.767, 280.275 21.391, 278.168 23.498 C 277.190 24.477, 281.040 27, 283.513 27 C 284.685 27, 288.969 29.290, 293.032 32.090 C 297.095 34.889, 302.519 38.243, 305.085 39.543 C 309.614 41.838, 311.587 44.241, 310.452 46.077 C 309.854 47.045, 298.832 41.787, 292.776 37.644 C 290.728 36.242, 287.128 34.534, 284.776 33.847 C 282.424 33.160, 279.340 31.762, 277.923 30.739 C 273.005 27.191, 259.490 21.889, 254 21.354 L 248.500 20.819 251.500 22.903 C 253.150 24.049, 254.984 24.990, 255.576 24.993 C 256.735 25.001, 261 29.185, 261 30.314 C 261 31.833, 257.191 30.855, 254.033 28.524 C 249.630 25.276, 246.504 24.396, 234.500 23.024 C 229 22.395, 223.825 21.751, 223 21.594 C 222.175 21.436, 219.165 21.585, 216.311 21.925 M 267.527 32.956 C 267.202 33.482, 267.963 34.533, 269.218 35.292 C 270.473 36.051, 272.722 37.421, 274.215 38.336 C 277.733 40.492, 280.241 40.489, 279.823 38.329 C 279.645 37.410, 277.475 35.622, 275 34.357 C 270.044 31.823, 268.416 31.518, 267.527 32.956 M 198.721 39.399 C 197.262 40.517, 197.200 40.863, 198.374 41.313 C 200.451 42.110, 204.146 40.939, 203.708 39.623 C 203.154 37.957, 200.742 37.849, 198.721 39.399 M 189.235 48.581 L 185.500 52.163 192.500 51.588 C 196.350 51.273, 203.325 50.993, 208 50.966 L 216.500 50.919 213.038 47.959 C 209.805 45.196, 209.026 45, 201.273 45 C 193.111 45, 192.908 45.060, 189.235 48.581 M 232 49.289 C 232 49.565, 236.460 53.654, 241.912 58.375 C 249.344 64.811, 251.702 67.425, 251.335 68.826 C 250.929 70.379, 251.864 70.979, 256.892 72.390 C 265.240 74.732, 266.519 75.513, 275.567 83.789 C 283.483 91.030, 288.849 94.557, 302.814 101.695 C 306.837 103.752, 312.462 107.387, 315.314 109.774 C 331.769 123.542, 337.593 128.615, 348.847 138.984 C 356.603 146.129, 362.914 152.929, 365.553 156.984 C 367.885 160.568, 371.892 165.750, 374.459 168.500 L 379.124 173.500 376.343 168 C 374.813 164.975, 372.313 161.025, 370.787 159.222 C 369.261 157.419, 367.139 154.269, 366.071 152.222 C 364.487 149.184, 354.480 137.624, 348.802 132.273 C 344.601 128.313, 338.068 122.751, 335.303 120.779 C 331.994 118.420, 313.467 104.610, 308.915 101.109 C 307.493 100.015, 305.199 98.837, 303.817 98.490 C 302.436 98.144, 299.099 95.931, 296.403 93.575 C 293.706 91.218, 290.381 88.935, 289.013 88.502 C 285.085 87.259, 279.243 83.038, 278.729 81.073 C 278.207 79.074, 268.130 72, 265.806 72 C 264.988 72, 261.548 70.615, 258.160 68.922 C 253.818 66.752, 252 65.277, 252 63.922 C 252 61.637, 254.060 61.462, 257.857 63.426 C 261.744 65.436, 273.486 69.451, 280 70.997 C 283.025 71.716, 286.498 72.952, 287.718 73.746 C 288.938 74.539, 290.513 74.981, 291.218 74.729 C 291.972 74.459, 291.115 73.494, 289.136 72.385 C 287.286 71.348, 284.228 69.487, 282.341 68.250 C 280.455 67.013, 277.972 66, 276.824 66 C 275.675 66, 273.333 65.155, 271.618 64.122 C 269.903 63.089, 266.700 61.924, 264.500 61.533 C 262.300 61.143, 256.900 58.864, 252.500 56.470 C 248.100 54.075, 242.439 51.655, 239.920 51.092 C 237.401 50.529, 234.589 49.779, 233.670 49.427 C 232.752 49.074, 232 49.012, 232 49.289 M 196.512 55.858 C 194.869 56.220, 193.384 57.243, 193.213 58.133 C 192.945 59.522, 194.562 59.834, 204.701 60.346 C 211.190 60.674, 219.200 61.239, 222.500 61.603 L 228.500 62.264 226.595 60.132 C 225.384 58.777, 223.496 58, 221.410 58 C 219.606 58, 217.088 57.612, 215.815 57.138 C 212.511 55.908, 200.046 55.081, 196.512 55.858 M 177.711 60.975 C 173.061 65.365, 173.917 65.999, 181.083 63.471 C 185.953 61.752, 187.392 60.177, 185.820 58.284 C 184.058 56.160, 182.137 56.798, 177.711 60.975 M 194.703 65.995 C 174.835 69.048, 168.973 70.809, 165.264 74.842 C 163.484 76.777, 162.141 78.474, 162.279 78.612 C 162.418 78.751, 166.799 77.600, 172.015 76.056 C 189.164 70.978, 213.891 68.616, 225.795 70.917 C 229.276 71.591, 230.508 71.409, 232.295 69.960 C 233.508 68.977, 234.147 67.818, 233.716 67.386 C 233.285 66.953, 228.560 66.283, 223.216 65.896 C 217.872 65.510, 211.925 64.966, 210 64.688 C 208.075 64.410, 201.192 64.998, 194.703 65.995 M 246.017 72.750 C 246.047 74.051, 259.928 80.925, 260.537 79.940 C 261.536 78.323, 260.002 76.976, 254.284 74.447 C 248.645 71.953, 245.986 71.407, 246.017 72.750 M 195 74.460 C 189.225 75.174, 183.233 76.263, 181.684 76.880 C 180.134 77.496, 175.797 78.641, 172.045 79.424 C 163.292 81.249, 157.803 84.081, 154.418 88.518 C 152.935 90.463, 151.917 92.251, 152.157 92.490 C 153.149 93.483, 163.900 89.804, 171.914 85.730 C 179.879 81.681, 181.425 81.269, 193.292 80.042 C 200.599 79.287, 209.419 78.998, 213.860 79.368 C 221.269 79.986, 221.747 79.898, 223.989 77.512 C 225.283 76.135, 226.107 74.774, 225.821 74.487 C 224.612 73.279, 204.694 73.261, 195 74.460 M 239.638 78.848 C 238.010 80.646, 238.121 80.774, 242.323 81.951 C 247.271 83.336, 251.154 83.075, 251.732 81.318 C 252.212 79.862, 249.649 78.470, 244.918 77.618 C 242.130 77.116, 240.958 77.389, 239.638 78.848 M 340.875 86.850 C 343.108 89.518, 345.391 92.899, 345.948 94.363 C 346.529 95.892, 348.965 98.191, 351.670 99.763 C 354.261 101.268, 358.329 104.253, 360.710 106.396 C 365.809 110.983, 367.356 110.655, 363.259 105.855 C 361.684 104.010, 358.719 100.173, 356.671 97.329 C 354.622 94.485, 351.046 91.041, 348.723 89.674 C 346.400 88.308, 343.409 86.023, 342.076 84.595 C 337.643 79.850, 336.621 81.769, 340.875 86.850 M 308.013 84.250 C 308.029 85.914, 317.326 93.964, 323.159 97.366 C 325.721 98.861, 328.062 100.720, 328.361 101.499 C 329.019 103.213, 336.963 108.371, 337.743 107.590 C 339.465 105.868, 327.908 94.051, 322.987 92.503 C 321.619 92.072, 317.997 89.758, 314.938 87.360 C 309.023 82.724, 307.993 82.261, 308.013 84.250 M 260.875 85.349 C 261.628 86.257, 262.762 87, 263.395 87 C 264.027 87, 266.109 88.288, 268.022 89.863 C 272.292 93.377, 283.765 99.264, 284.935 98.540 C 285.405 98.250, 287.525 99.547, 289.645 101.423 C 300.958 111.432, 304.414 114.171, 308.114 116.058 C 314.319 119.224, 321.287 124.566, 323.392 127.772 C 324.432 129.357, 327.448 131.870, 330.093 133.357 C 332.738 134.844, 335.712 137.068, 336.701 138.299 C 337.691 139.531, 339.910 141.430, 341.634 142.519 C 343.358 143.609, 347.567 147.875, 350.989 152 C 357.988 160.437, 369.943 173.028, 373.889 176.118 C 375.325 177.243, 378.188 179.719, 380.250 181.622 C 383.961 185.045, 385.719 184.737, 382.146 181.289 C 381.127 180.305, 375.717 174.100, 370.125 167.500 C 364.533 160.900, 358.370 153.700, 356.429 151.500 C 354.488 149.300, 352.585 147.028, 352.200 146.452 C 351.815 145.875, 349.993 144.350, 348.151 143.063 C 346.309 141.776, 342.259 138.190, 339.151 135.095 C 329.787 125.768, 323.973 121.187, 314 115.276 C 308.775 112.179, 302.925 108.200, 301 106.435 C 297.688 103.398, 289.001 97.771, 279 92.184 C 276.525 90.801, 273.574 88.561, 272.442 87.207 C 270.865 85.319, 269.112 84.621, 264.944 84.221 C 259.972 83.743, 259.622 83.840, 260.875 85.349 M 240.007 88.747 C 235.112 89.019, 232.960 89.628, 231.265 91.221 C 230.029 92.382, 228.129 93.398, 227.045 93.478 C 224.976 93.631, 221 96.707, 221 98.155 C 221 98.620, 222.317 99, 223.926 99 C 225.535 99, 235.097 102.113, 245.176 105.917 C 268.424 114.692, 267.322 114.407, 269.342 112.175 C 270.952 110.395, 270.669 110.218, 262.260 107.736 C 239.074 100.893, 231 98.099, 231 96.917 C 231 96.451, 232.012 95.548, 233.250 94.910 C 234.488 94.272, 236.416 92.918, 237.536 91.902 C 239.282 90.317, 240.282 90.186, 244.536 90.988 C 250.597 92.130, 267.890 97.934, 273.944 100.859 C 276.381 102.036, 279.004 103, 279.771 103 C 283.281 103, 279.395 100.072, 268.202 94.285 C 255.131 87.526, 256.633 87.821, 240.007 88.747 M 160.500 93.536 C 158.850 94.292, 156.554 94.930, 155.398 94.955 C 152.082 95.026, 146.993 99.098, 144.164 103.942 C 141.442 108.603, 141.970 108.625, 147.928 104.102 C 149.814 102.671, 153.606 100.375, 156.354 99 C 159.103 97.625, 162.002 95.487, 162.798 94.250 C 164.447 91.684, 164.505 91.702, 160.500 93.536 M 187.739 95.091 C 168.367 99.140, 160.058 102.491, 144.484 112.538 C 138.592 116.340, 135.383 119.121, 134.372 121.303 C 133.557 123.061, 131.797 126.300, 130.462 128.500 C 127.599 133.214, 127.129 135.968, 129.526 133.978 C 130.365 133.282, 133.152 129.852, 135.719 126.356 C 138.286 122.860, 140.907 120, 141.544 120 C 142.181 120, 146.195 117.494, 150.464 114.431 C 159.266 108.115, 172.925 101.744, 181.030 100.173 C 184.038 99.590, 190.723 98.852, 195.884 98.533 C 206.138 97.898, 206.507 97.789, 208.030 94.944 C 209.012 93.109, 208.718 93.007, 202.785 93.130 C 199.328 93.201, 192.557 94.083, 187.739 95.091 M 192.992 102.025 C 185.602 102.891, 170.467 107.260, 164.500 110.250 C 154.624 115.199, 137.574 127.668, 130.877 134.839 C 124.266 141.918, 120 148.330, 120 151.187 C 120 151.883, 123.487 149.058, 127.750 144.908 C 132.012 140.758, 138.650 134.666, 142.500 131.370 C 160.987 115.543, 168.640 111.624, 187.951 108.097 C 195.803 106.662, 199.666 105.492, 200.596 104.266 C 202.293 102.030, 202.345 100.964, 200.750 101.131 C 200.063 101.204, 196.572 101.606, 192.992 102.025 M 216.750 102.109 C 215.033 103.081, 214.276 106.015, 215.750 105.985 C 217.480 105.949, 219.172 104.150, 218.848 102.689 C 218.585 101.501, 218.073 101.360, 216.750 102.109 M 209.536 110.941 C 209.131 111.597, 208.981 112.314, 209.202 112.536 C 209.424 112.757, 213.857 113.583, 219.053 114.371 C 224.249 115.158, 230.975 116.787, 234 117.989 C 241.624 121.020, 254.156 124.972, 256.191 124.987 C 260.269 125.018, 258.562 122.821, 252.291 119.966 C 238.042 113.480, 211.438 107.864, 209.536 110.941 M 181.500 114.351 C 175.450 116.141, 169.771 118.031, 168.881 118.553 C 165.801 120.355, 147.721 138.054, 148.334 138.667 C 148.672 139.006, 152.852 136.114, 157.621 132.241 C 166.395 125.117, 173.669 121.558, 184.500 119.090 C 189.157 118.029, 194 114.386, 194 111.944 C 194 110.658, 193.960 110.666, 181.500 114.351 M 333 113.066 C 333 114.877, 335.011 118, 336.177 118 C 337.468 118, 346.677 125.507, 352.625 131.408 C 364.269 142.961, 369.091 146.990, 375.250 150.317 C 380.109 152.941, 382 153.558, 382 152.521 C 382 151.728, 381.438 150.621, 380.750 150.062 C 380.063 149.503, 377.328 147.229, 374.673 145.008 C 372.018 142.788, 368.564 140.309, 366.997 139.499 C 365.431 138.689, 362.879 136.141, 361.325 133.837 C 359.710 131.443, 356.572 128.632, 354 127.276 C 351.525 125.972, 349.275 124.305, 349 123.573 C 348.725 122.840, 345.734 119.937, 342.354 117.120 C 336.509 112.252, 333 110.730, 333 113.066 M 252.570 113.887 C 251.814 115.110, 253.795 116.512, 258.353 117.981 C 261.623 119.035, 262.438 118.991, 263.738 117.690 C 265.115 116.314, 264.730 115.997, 259.954 114.579 C 253.779 112.745, 253.303 112.701, 252.570 113.887 M 282.655 115.829 C 280.410 118.309, 280.547 118.742, 283.803 119.457 C 285.344 119.795, 290.294 122.290, 294.803 125 C 299.311 127.710, 302.999 129.606, 302.997 129.214 C 302.994 128.220, 286.407 114, 285.251 114 C 284.733 114, 283.565 114.823, 282.655 115.829 M 207.856 118.700 C 205.833 118.927, 203.386 120.037, 202.356 121.195 C 200.500 123.282, 200.500 123.283, 204.500 122.499 C 206.700 122.069, 211.425 121.443, 215 121.108 C 218.575 120.774, 221.500 120.050, 221.500 119.500 C 221.500 118.448, 214.029 118.010, 207.856 118.700 M 275.980 122.524 C 275.284 123.362, 274.892 124.151, 275.107 124.277 C 275.323 124.403, 279.775 126.709, 285 129.402 C 308.106 141.308, 311 143.419, 311 148.361 L 311 151.349 313.500 149 C 314.875 147.708, 316 146.090, 316 145.403 C 316 142.865, 305.112 135.085, 291.847 128.144 C 284.337 124.215, 277.980 121, 277.719 121 C 277.458 121, 276.676 121.686, 275.980 122.524 M 221 123.080 C 201.421 127.344, 198.437 128.271, 196.120 130.808 C 193.217 133.987, 194.541 134.637, 199.607 132.520 C 211.790 127.429, 232.482 126.157, 244.733 129.745 C 251.419 131.703, 254.038 131.488, 252.563 129.102 C 251.642 127.611, 235.854 122.866, 230.500 122.470 C 227.750 122.266, 223.475 122.541, 221 123.080 M 176.751 126.453 C 160.488 133.591, 150.016 141.316, 146.259 148.948 C 145.027 151.452, 144.014 153.657, 144.009 153.849 C 144.004 154.041, 146.723 151.791, 150.052 148.849 C 157.257 142.481, 163.472 138.430, 175.209 132.455 C 182.686 128.648, 186 125.918, 186 123.566 C 186 122.565, 184.649 122.987, 176.751 126.453 M 268.980 129.524 C 268.284 130.362, 267.919 131.253, 268.169 131.503 C 269.320 132.654, 302.623 149, 303.817 149 C 306.767 149, 303.927 146.348, 294.440 140.245 C 285.506 134.499, 273.082 128, 271.029 128 C 270.598 128, 269.676 128.686, 268.980 129.524 M 228.318 133.006 C 227.118 133.490, 223.460 134.188, 220.190 134.558 C 212.544 135.423, 210.916 136.343, 213.124 138.552 C 214.572 140, 216.356 140.067, 229.497 139.167 C 237.609 138.612, 244.831 138.382, 245.546 138.656 C 246.261 138.931, 247.351 138.214, 247.966 137.063 C 249.257 134.652, 249.384 134.720, 240.583 133.093 C 233.682 131.818, 231.308 131.801, 228.318 133.006 M 264.091 135.390 C 263.142 136.534, 265.250 137.725, 275.966 142.100 C 290.893 148.195, 302.158 155.680, 301.306 158.939 C 300.533 161.894, 298.238 162.199, 293.278 160.005 C 286.852 157.162, 286.773 157.492, 292.890 161.612 L 298.253 165.223 302.081 160.862 C 304.186 158.463, 305.795 156.098, 305.656 155.606 C 305.310 154.379, 267.644 134, 265.723 134 C 265.460 134, 264.726 134.626, 264.091 135.390 M 168.031 140.334 C 158.971 144.804, 156.345 146.718, 148.531 154.542 C 142.865 160.215, 138.264 165.897, 136.182 169.792 C 134.358 173.206, 133.221 176, 133.657 176 C 134.093 176, 141.002 169.335, 149.010 161.188 C 161.063 148.926, 164.729 145.812, 170.298 143.098 C 176.004 140.319, 180.050 136.715, 178.831 135.498 C 178.649 135.317, 173.789 137.493, 168.031 140.334 M 193.841 141.344 C 189.781 143.148, 187.021 146.032, 184.392 151.217 C 181.315 157.284, 181.379 157.938, 184.750 154.874 C 186.262 153.499, 188.437 151.727, 189.582 150.937 C 199.813 143.876, 201.133 142.571, 199.358 141.273 C 197.336 139.794, 197.329 139.794, 193.841 141.344 M 260 141 C 260 141.550, 261.012 141.993, 262.250 141.985 C 264.069 141.972, 264.213 141.784, 263 141 C 261.061 139.747, 260 139.747, 260 141 M 226.424 144.924 C 222.533 145.867, 217.752 146.453, 215.801 146.225 C 213.182 145.919, 211.763 146.332, 210.377 147.804 C 209.345 148.900, 205.749 151.403, 202.386 153.367 C 199.023 155.330, 195.462 158.188, 194.473 159.718 C 193.484 161.248, 191.094 163.882, 189.162 165.571 C 185.546 168.733, 185.228 172, 188.536 172 C 190.047 172, 195.711 167.928, 200.381 163.484 C 207.165 157.029, 216.542 152.899, 232.186 149.477 C 239.264 147.929, 241.064 147.154, 241.914 145.289 C 242.924 143.073, 242.806 143.003, 238.229 143.104 C 235.628 143.161, 230.316 143.980, 226.424 144.924 M 332.121 147.375 L 328.860 150.740 334.783 155.120 C 339.009 158.245, 343.112 162.863, 349.103 171.236 C 356.875 182.099, 360 185.076, 360 181.617 C 360 179.904, 347.069 161.823, 342.272 156.827 C 339.536 153.978, 338.881 152.611, 339.352 150.733 C 339.793 148.978, 339.330 147.719, 337.671 146.161 L 335.382 144.010 332.121 147.375 M 254.653 146.831 C 253.741 147.838, 253.297 148.963, 253.664 149.331 C 254.847 150.514, 258.718 150.044, 259.942 148.570 C 260.890 147.428, 260.726 146.924, 259.130 146.070 C 256.552 144.690, 256.598 144.682, 254.653 146.831 M 160.036 157.250 C 137.429 177.781, 131.670 184.096, 126.500 194.030 C 122.626 201.473, 112.903 216.173, 107.819 222.274 C 102.220 228.993, 99.087 237.193, 99.196 244.846 L 99.283 251 123.142 251 L 147 251 147 246.500 C 147 243.167, 146.611 242, 145.500 242 C 143.528 242, 143.571 241.611, 146.500 233 C 150.362 221.644, 149.722 217.751, 145.106 224.529 C 143.789 226.463, 142.568 227.901, 142.393 227.726 C 141.322 226.655, 145.573 215.617, 148.928 210.754 C 151.120 207.578, 153.212 203.296, 153.578 201.240 C 154.450 196.331, 153.948 196.915, 144.049 212.321 C 137.973 221.779, 135.115 227.376, 133.156 233.653 C 130.537 242.045, 128.379 244.354, 128.627 238.500 C 128.804 234.299, 138.727 214.250, 145.949 203.500 C 151.494 195.247, 153.469 190, 151.032 190 C 148.353 190, 122.454 231.134, 123.468 233.777 C 124.212 235.716, 122.184 242, 120.814 242 C 120.214 242, 120.045 240.956, 120.411 239.500 C 121.266 236.092, 119.870 236.362, 117.797 240.006 C 115.910 243.321, 113.984 243.957, 114.030 241.250 C 114.069 238.998, 124.547 220.944, 133.349 207.965 C 137.116 202.410, 139.894 197.561, 139.522 197.189 C 139.150 196.817, 137.643 197.976, 136.173 199.765 C 134.703 201.554, 133.085 203.014, 132.577 203.009 C 131.170 202.995, 117.910 217.724, 115.567 221.903 C 114.430 223.930, 111.475 229.275, 109 233.781 C 106.525 238.286, 103.907 241.978, 103.183 241.986 C 99.699 242.023, 107.055 229.031, 130.891 193.052 C 132.876 190.055, 142.871 179.255, 153.103 169.052 C 170.153 152.049, 175.439 146, 173.247 146 C 172.795 146, 166.850 151.063, 160.036 157.250 M 122.350 157.250 C 116.324 163.384, 113.844 166.718, 112.683 170.250 C 111.824 172.863, 111.279 175, 111.471 175 C 111.663 175, 114.777 171.427, 118.390 167.059 C 122.004 162.691, 126.010 158.079, 127.293 156.809 C 129.779 154.349, 132.460 149, 131.206 149 C 130.794 149, 126.808 152.713, 122.350 157.250 M 232 155 C 231.175 155.533, 227.853 155.976, 224.618 155.985 C 218.728 156, 213.045 158.340, 211.256 161.485 C 210.840 162.217, 207.393 165.358, 203.596 168.466 C 198.986 172.239, 194.665 177.109, 190.596 183.117 C 178.232 201.370, 177.900 202.024, 178.214 207.491 C 178.427 211.204, 178.926 212.562, 180.163 212.797 C 181.416 213.035, 182.237 211.697, 183.498 207.359 C 187.138 194.837, 197.584 179.521, 208.612 170.538 C 213.556 166.511, 227.655 160, 231.433 160 C 232.916 160, 235 157.118, 235 155.066 C 235 153.751, 233.968 153.728, 232 155 M 248.984 155.416 C 247.135 157.265, 247.999 158.777, 251.250 159.381 C 253.037 159.713, 258.959 160.652, 264.408 161.467 C 270.916 162.440, 275.034 163.579, 276.408 164.785 C 278.476 166.600, 279.945 167.649, 287.230 172.511 C 291.744 175.523, 291.653 175.518, 293.071 172.867 C 294.089 170.966, 293.624 170.173, 288.805 165.579 C 284.242 161.228, 282.167 160.066, 275.517 158.134 C 266.577 155.536, 250.509 153.891, 248.984 155.416 M 284.733 157.124 C 285.412 157.808, 286.219 158.115, 286.526 157.807 C 286.834 157.499, 286.279 156.940, 285.293 156.564 C 283.868 156.022, 283.753 156.136, 284.733 157.124 M 321.522 156.965 C 321.193 157.496, 324.270 160.404, 328.359 163.428 C 337.078 169.876, 341.093 174.445, 344.679 182 C 346.114 185.025, 347.962 188.530, 348.784 189.788 C 350.276 192.071, 350.285 192.072, 352.140 190.080 C 354.776 187.251, 354.523 186.071, 349.854 179.413 C 344.127 171.245, 336.488 163.459, 330.231 159.410 C 324.820 155.909, 322.566 155.276, 321.522 156.965 M 178.814 162.878 C 173.989 173.995, 174.111 174.114, 182.432 166.437 C 188.670 160.681, 188.885 159.141, 183.536 158.553 C 181.160 158.293, 180.568 158.834, 178.814 162.878 M 243.617 164.136 C 240.910 168.001, 241.546 168.997, 246.750 169.036 C 254.102 169.091, 262.898 171.588, 267.577 174.948 C 269.914 176.626, 272.274 178, 272.821 178 C 273.367 178, 275.838 180.250, 278.310 183 C 280.783 185.750, 283.063 188, 283.377 188 C 283.691 188, 284.629 186.684, 285.461 185.076 L 286.973 182.152 280.436 176.163 C 272.604 168.986, 267.616 166.490, 257.277 164.574 C 253 163.781, 248.540 162.839, 247.367 162.480 C 245.809 162.004, 244.798 162.450, 243.617 164.136 M 357.038 163.770 C 357.017 164.468, 358.028 166.718, 359.285 168.770 C 360.542 170.821, 362.108 173.738, 362.764 175.250 C 363.420 176.762, 364.390 178, 364.920 178 C 366.787 178, 367.064 176.027, 365.583 173.279 C 363.463 169.348, 357.083 162.247, 357.038 163.770 M 222.836 165.970 C 214.936 168.425, 211.697 170.682, 202.277 180.300 C 195.788 186.925, 193.212 190.466, 190.059 197.097 C 187.861 201.719, 185.524 207.568, 184.865 210.096 C 183.678 214.650, 184.194 218.616, 185.841 217.598 C 186.312 217.307, 189.762 210.866, 193.508 203.285 C 199.066 192.035, 201.512 188.262, 206.809 182.765 C 212.993 176.348, 221.339 171, 225.171 171 C 227.009 171, 230.570 165.463, 229.246 164.662 C 228.836 164.413, 225.951 165.002, 222.836 165.970 M 118.273 174.137 C 113.998 179.162, 109.989 184.002, 109.364 184.893 C 107.842 187.063, 105.969 194, 106.906 194 C 107.316 194, 109.957 191.188, 112.777 187.750 C 115.596 184.313, 119.191 180.150, 120.766 178.500 C 125.807 173.219, 129.628 165, 127.042 165 C 126.494 165, 122.548 169.112, 118.273 174.137 M 310.211 169.190 L 306.923 173.310 309.313 175.905 C 310.628 177.332, 314.742 183, 318.456 188.500 C 322.170 194, 327.075 201.244, 329.355 204.598 C 331.635 207.953, 333.976 211.515, 334.557 212.516 C 335.493 214.127, 335.932 213.792, 338.395 209.588 C 340.236 206.448, 340.981 204.059, 340.596 202.528 C 339.551 198.363, 316.811 165.666, 314.695 165.285 C 314.038 165.167, 312.020 166.924, 310.211 169.190 M 324.098 172.250 C 325.275 174.588, 329.269 179.650, 332.974 183.500 C 336.680 187.350, 340.713 192.466, 341.937 194.869 C 343.509 197.955, 344.474 198.926, 345.225 198.175 C 345.977 197.423, 344.858 194.966, 341.414 189.806 C 330.416 173.323, 318.619 161.362, 324.098 172.250 M 157.194 177.947 C 152.512 184.958, 151.781 188.329, 155.052 187.820 C 156.598 187.579, 157.706 185.774, 159.547 180.500 C 160.891 176.650, 161.855 173.087, 161.690 172.583 C 161.524 172.079, 159.501 174.492, 157.194 177.947 M 172.978 179.696 C 171.340 182.278, 170 185.444, 170 186.731 C 170 188.753, 170.269 188.927, 171.981 188.010 C 174.730 186.539, 179 180.004, 179 177.268 C 179 173.512, 176.178 174.649, 172.978 179.696 M 238 177.729 C 236.148 178.434, 235.036 180.025, 235.015 182 C 235.001 183.295, 236.365 183.374, 245 182.578 C 250.500 182.071, 255 181.295, 255 180.853 C 255 178.128, 242.828 175.891, 238 177.729 M 180.687 182.250 C 179.359 184.037, 175.976 189.325, 173.169 194 C 168.827 201.231, 167.449 204.888, 163.939 218.500 C 161.584 227.630, 159.578 238.042, 159.265 242.750 L 158.718 251 186.234 251 L 213.750 251 214.375 247.875 C 215.316 243.169, 215.234 243, 212 243 C 209.627 243, 209 243.435, 209 245.083 C 209 246.933, 206.883 247.547, 206.828 245.714 C 206.705 241.586, 209.777 220.731, 211.178 216.183 C 212.489 211.924, 211.574 210.966, 209.719 214.657 C 207.802 218.471, 202.834 237.764, 203.205 239.953 C 203.367 240.910, 203.050 241.768, 202.500 241.860 C 200.816 242.140, 200.813 232.618, 202.495 225.364 C 204.317 217.504, 210.864 202.617, 215.409 196 C 218.248 191.867, 221.396 184.063, 220.562 183.228 C 220.368 183.035, 218.560 184.325, 216.544 186.095 C 214.036 188.298, 210.836 193.447, 206.407 202.407 C 198.358 218.693, 197 223.211, 197 233.713 C 197 240.316, 196.677 242.187, 195.457 242.655 C 192.796 243.676, 192.566 242.201, 193.909 232.719 C 196.371 215.327, 196.340 216, 194.673 216 C 191.519 216, 188.766 221.825, 187.911 230.307 C 187.461 234.773, 187.281 238.614, 187.511 238.844 C 187.741 239.075, 187.459 240.142, 186.884 241.217 C 185.308 244.162, 184.500 242.458, 184.500 236.188 C 184.500 226.791, 180.532 228.808, 177.491 239.750 C 177.147 240.988, 176.172 242, 175.326 242 C 174.479 242, 173.998 241.438, 174.257 240.750 C 175.455 237.573, 177.843 228.097, 178.385 224.367 C 178.822 221.364, 178.582 219.898, 177.506 219.005 C 174.017 216.109, 170.878 221.091, 167.429 235 C 165.258 243.754, 165.289 243.689, 163.890 242.290 C 162.787 241.187, 163.661 237.857, 171.320 214 C 174.887 202.890, 180.147 189.680, 183.179 184.220 C 186.485 178.265, 184.698 176.852, 180.687 182.250 M 302.054 180.435 C 299.686 183.289, 301.963 187.176, 311.416 196.415 C 316.529 201.412, 323.315 209.249, 326.496 213.832 C 330.643 219.804, 332.520 221.786, 333.125 220.832 C 334.457 218.731, 334.157 217.020, 331.954 214.158 C 330.829 212.696, 326.370 206.550, 322.046 200.500 C 317.721 194.450, 311.742 187.114, 308.757 184.198 C 304.026 179.574, 303.168 179.093, 302.054 180.435 M 117.020 188.134 C 108.802 196.352, 101.306 208.639, 103.297 210.630 C 103.565 210.898, 105.496 208.278, 107.588 204.809 C 109.681 201.339, 112.149 197.951, 113.073 197.280 C 115.190 195.742, 121.432 186.098, 120.750 185.417 C 120.472 185.138, 118.793 186.361, 117.020 188.134 M 236 186.721 C 234.625 186.968, 233.087 187.567, 232.582 188.053 C 231.835 188.771, 228.911 196.001, 229.368 195.999 C 229.441 195.999, 231.867 195.099, 234.761 193.999 C 244.327 190.363, 254.283 191.698, 268.904 198.577 C 273.828 200.894, 274.449 200.980, 275.887 199.541 C 277.036 198.393, 277.191 197.526, 276.455 196.360 C 273.770 192.102, 244.667 185.168, 236 186.721 M 366.498 192.215 C 366.070 193.286, 366.692 195.161, 368.157 197.215 C 369.664 199.327, 370.510 201.938, 370.527 204.530 C 370.548 207.619, 371.631 210.188, 375.164 215.530 C 377.700 219.364, 381.722 226.239, 384.103 230.809 C 387.136 236.630, 388.609 238.615, 389.022 237.438 C 389.992 234.673, 386.418 225.866, 382.020 220.182 C 377.597 214.465, 374.306 208.361, 375.178 207.489 C 376.560 206.107, 378.884 208.768, 383.297 216.785 C 385.936 221.578, 388.994 226.588, 390.094 227.918 C 391.900 230.103, 392.242 230.186, 393.644 228.785 C 394.926 227.503, 394.982 226.822, 393.968 224.867 C 391.455 220.023, 378.963 203.283, 373.173 197 C 368.295 191.707, 367.055 190.818, 366.498 192.215 M 375.365 194.154 C 377.004 196.655, 384.956 203.772, 388 205.461 C 390.218 206.693, 382.125 198.330, 377.588 194.703 C 373.875 191.734, 373.761 191.706, 375.365 194.154 M 243 197.938 C 236.637 198.682, 230.068 201.826, 227.166 205.516 C 225.308 207.878, 221.578 220.911, 222.497 221.830 C 222.716 222.049, 224.269 219.319, 225.949 215.763 C 228.869 209.583, 229.278 209.184, 235.252 206.699 C 245.647 202.375, 248.863 202.395, 262 206.868 C 268.325 209.021, 273.837 210.580, 274.250 210.332 C 274.663 210.085, 275 209.020, 275 207.967 C 275 205.812, 272.994 204.631, 261.674 200.119 C 253.694 196.938, 252.616 196.812, 243 197.938 M 358.053 200.900 C 357.274 202.356, 357.402 202.940, 358.600 203.400 C 360.913 204.288, 361 204.219, 361 201.500 C 361 198.538, 359.483 198.229, 358.053 200.900 M 301.677 201.400 C 300.951 203.292, 303.505 206.542, 316.949 220.832 C 324.794 229.171, 328.722 232.678, 329.426 231.974 C 330.131 231.269, 330.072 230.403, 329.238 229.222 C 328.569 228.275, 327.091 225.781, 325.955 223.681 C 324.818 221.580, 321.470 217.230, 318.513 214.015 C 315.557 210.799, 312.427 206.793, 311.559 205.113 C 309.143 200.442, 302.939 198.110, 301.677 201.400 M 292.718 208.250 C 291.972 210.333, 293.901 213.169, 301.050 220.500 C 304.805 224.350, 310.378 230.650, 313.436 234.500 C 318.297 240.621, 318.744 241.540, 316.992 241.820 C 315.634 242.037, 312.251 239.648, 306.494 234.408 C 301.822 230.155, 298 226.335, 298 225.918 C 298 224.554, 287.831 214, 286.516 214 C 285.260 214, 284.041 216.955, 284.014 220.065 C 284.006 220.925, 285.550 222.369, 287.445 223.272 C 289.421 224.215, 292.363 227.103, 294.347 230.049 C 296.248 232.872, 299.423 236.283, 301.402 237.627 C 305.533 240.435, 306.138 243, 302.667 243 C 301.137 243, 299.196 241.583, 297.024 238.880 C 294.033 235.158, 289.498 232.412, 283.250 230.540 C 281.336 229.966, 281 230.239, 281 232.370 C 281 234.196, 282.226 235.756, 285.516 238.119 C 288.584 240.322, 289.637 241.606, 288.801 242.123 C 288.123 242.542, 281.704 242.727, 274.535 242.534 C 261.636 242.187, 261.479 242.154, 259.500 239.431 C 254.580 232.659, 253.469 231.807, 248.878 231.290 C 244.782 230.828, 244.099 231.059, 242.121 233.573 C 240.723 235.351, 240.027 237.450, 240.211 239.336 C 240.590 243.223, 238.320 243.973, 236.965 240.408 C 233.798 232.079, 242.365 224.853, 252.436 227.358 C 255.168 228.038, 257.998 230.016, 261.691 233.830 C 264.617 236.851, 267.170 239.137, 267.364 238.911 C 267.558 238.685, 267.980 236.793, 268.303 234.707 C 268.874 231.008, 268.739 230.804, 262.870 226.483 C 257.476 222.513, 251.838 220.021, 248.210 220.006 C 245.659 219.995, 239.250 223.951, 236.210 227.414 C 233.150 230.899, 231.016 236.365, 231.006 240.750 C 231.003 241.988, 230.550 243, 230 243 C 228.635 243, 228.732 232.101, 230.134 227.899 C 231.520 223.745, 236.263 218.548, 240.131 216.946 C 243.299 215.633, 243.785 213.896, 241.511 212.009 C 239.197 210.089, 233.489 211.671, 229.675 215.290 C 226.919 217.904, 225.992 219.891, 224.675 226 C 223.786 230.125, 222.933 235.525, 222.780 238 C 222.580 241.209, 222.070 242.500, 221 242.500 C 219.950 242.500, 219.408 243.776, 219.193 246.750 L 218.885 251 247.443 251 C 272.160 251, 276 250.798, 276 249.500 C 276 248.675, 276.464 248, 277.031 248 C 277.599 248, 278.322 248.675, 278.638 249.500 C 279.127 250.774, 282.725 251, 302.513 251 L 325.812 251 326.492 246.055 C 327.108 241.580, 326.874 240.678, 324.030 236.544 C 322.302 234.032, 317.651 228.704, 313.694 224.703 C 309.737 220.703, 304.319 215.083, 301.653 212.215 C 296.951 207.156, 293.638 205.685, 292.718 208.250 M 352.566 208.893 C 352.251 209.403, 352.938 211.997, 354.091 214.660 C 357.292 222.046, 363.976 240.341, 363.989 241.750 C 363.996 242.584, 362.344 243, 359.026 243 C 354.633 243, 353.874 242.678, 352.536 240.250 C 351.703 238.738, 349.240 235.498, 347.062 233.051 L 343.102 228.601 342.018 231.452 C 341.092 233.889, 341.296 234.848, 343.422 238.062 C 345.601 241.354, 345.708 241.898, 344.288 242.443 C 343.395 242.785, 342.201 242.601, 341.633 242.033 C 339.886 240.286, 339.141 240.864, 338.781 244.250 L 338.434 247.500 337.080 244.802 C 335.920 242.491, 335.281 242.189, 332.613 242.696 C 330.901 243.021, 329.325 243.435, 329.111 243.616 C 328.896 243.797, 329.932 245.533, 331.411 247.473 L 334.102 251 360.051 251 C 385.333 251, 386 250.949, 386 249 C 386 247.900, 386.398 247, 386.883 247 C 387.369 247, 388.002 247.900, 388.290 249 C 388.595 250.167, 389.654 251, 390.832 251 C 392.801 251, 392.809 250.899, 391.176 247.010 C 390.254 244.816, 388.970 243.016, 388.323 243.010 C 387.676 243.005, 384.354 237.848, 380.942 231.551 C 375.212 220.978, 370 213.978, 370 216.856 C 370 218.342, 374.223 228.494, 378.129 236.395 C 379.731 239.638, 380.810 242.524, 380.525 242.808 C 380.241 243.092, 378.909 242.824, 377.565 242.211 C 375.270 241.166, 373.020 236.098, 373.006 231.941 C 373.003 231.084, 371.538 227.924, 369.750 224.920 C 367.962 221.916, 365.861 218.230, 365.081 216.729 C 364.301 215.228, 363.288 214, 362.831 214 C 360.937 214, 362.218 219.309, 365.300 224.231 C 367.115 227.129, 369.204 231.975, 369.943 235 C 370.681 238.025, 371.494 241.063, 371.749 241.750 C 372.005 242.438, 371.720 243, 371.116 243 C 369.804 243, 361.411 226.434, 357.566 216.257 C 354.807 208.951, 353.615 207.196, 352.566 208.893 M 104.845 215.047 C 101.432 220.140, 98.914 228.011, 100.705 227.991 C 101.142 227.986, 103.218 225.316, 105.318 222.056 C 108.159 217.646, 109.055 215.293, 108.818 212.861 L 108.500 209.593 104.845 215.047 M 389 211.505 C 389 213.002, 396.683 224, 397.728 224 C 399.509 224, 400.363 219.546, 399.052 217.096 C 397.716 214.601, 389 209.753, 389 211.505 M 254.494 213.009 C 253.213 215.083, 255.174 217.653, 262.027 222.880 C 265.905 225.837, 269.220 228.086, 269.395 227.878 C 269.570 227.670, 269.981 226.089, 270.308 224.365 C 270.846 221.533, 270.631 221.176, 268.075 220.665 C 266.387 220.327, 263.953 218.466, 262.039 216.050 C 258.956 212.157, 255.806 210.887, 254.494 213.009 M 349 216.734 C 349 219.713, 353.838 234.782, 355.031 235.519 C 356.596 236.486, 356.153 232.326, 353.875 224.655 C 351.592 216.966, 349 212.754, 349 216.734 M 246.500 240 C 245.354 241.854, 247.095 243, 251.059 243 C 255.302 243, 256.181 241.702, 253.066 240.035 C 250.609 238.720, 247.302 238.703, 246.500 240 M 90.425 245.524 C 87.741 251.948, 89.246 252.988, 93.381 247.567 C 96.543 243.422, 96.640 242.474, 93.925 242.269 C 92.439 242.157, 91.447 243.080, 90.425 245.524 M 154.873 242.734 C 153.380 243.069, 151.411 249.745, 152.488 250.821 C 153.712 252.045, 155.831 249.715, 156.438 246.478 C 157.211 242.356, 157.155 242.221, 154.873 242.734 M 99.286 274.750 C 100.111 296.981, 104.469 320.375, 112.187 344 C 115.417 353.889, 121.148 368.707, 122.916 371.744 C 123.836 373.322, 123.942 373.276, 123.970 371.285 C 123.986 370.067, 124.870 368.605, 125.934 368.035 C 127.108 367.407, 136.973 367, 151.018 367 C 163.750 367, 174.014 366.663, 173.827 366.250 C 173.640 365.837, 171.763 361.900, 169.655 357.500 C 164.454 346.642, 158.863 332.210, 155.999 322.250 L 153.627 314 140.748 314 C 133.664 314, 126.998 313.534, 125.934 312.965 C 123.325 311.568, 123.325 306.432, 125.934 305.035 C 126.998 304.466, 133.122 304, 139.544 304 L 151.219 304 150.648 300.250 C 149.096 290.062, 147.019 270.976, 147.010 266.832 C 146.992 258.470, 148.667 259, 122.244 259 L 98.701 259 99.286 274.750 M 158.874 260.250 C 158.157 267.369, 160.715 296.376, 162.577 302.243 C 163.089 303.856, 165.138 304, 187.567 304 C 201.174 304, 212 303.606, 212 303.110 C 212 302.621, 211.132 298.002, 210.071 292.847 C 209.011 287.692, 207.864 279.430, 207.523 274.487 C 207.182 269.544, 206.680 264.038, 206.406 262.250 L 205.909 259 182.455 259 C 164.425 259, 158.971 259.289, 158.874 260.250 M 218.408 262.641 C 217.387 268.083, 219.655 285.681, 223.192 299.750 L 224.260 304 249.247 304 L 274.233 304 273.570 301.750 C 270.331 290.761, 267.995 279.817, 267.497 273.306 C 267.169 269.013, 266.678 264.038, 266.405 262.250 L 265.909 259 242.500 259 L 219.091 259 218.408 262.641 M 278.376 268.553 C 279.106 278.929, 280.437 285.541, 284.054 296.750 L 286.394 304 312.780 304 C 327.293 304, 339.017 303.663, 338.833 303.250 C 338.650 302.837, 336.806 299.125, 334.736 295 C 330.891 287.340, 327.522 275.037, 326.454 264.750 L 325.856 259 301.780 259 L 277.705 259 278.376 268.553 M 167.968 322.750 C 171.933 335.293, 175.157 343.411, 181.162 355.965 L 186.441 367 214.220 367 C 229.499 367, 242 366.745, 242 366.433 C 242 366.122, 240.902 364.427, 239.560 362.668 C 233.309 354.473, 221.309 331.116, 217.508 319.750 L 215.586 314 190.394 314 L 165.202 314 167.968 322.750 M 229.130 319.100 C 234.254 332.585, 243.341 349.210, 251.882 360.725 L 256.500 366.950 288.241 366.975 L 319.981 367 309.612 356.750 C 298.222 345.492, 289.892 334.656, 283.014 322.154 L 278.529 314 252.861 314 L 227.192 314 229.130 319.100 M 294.110 319.750 C 301.181 332.232, 318.855 353.388, 321.717 352.795 C 323.581 352.409, 354.864 324.802, 354.913 323.500 C 354.933 322.950, 353.145 320.587, 350.939 318.250 L 346.928 314 318.890 314 L 290.853 314 294.110 319.750 M 439 366.672 C 417.492 379.355, 387.840 410.761, 381.364 427.716 L 379.654 432.193 377.765 429.847 L 375.875 427.500 376.605 430 C 377.007 431.375, 377.312 434.650, 377.283 437.279 C 377.237 441.462, 376.376 443.359, 370.365 452.511 C 363.846 462.438, 361.187 464.729, 359.449 461.918 C 359.081 461.323, 356.467 452.264, 353.640 441.788 C 349.721 427.263, 348.010 422.415, 346.438 421.372 C 344.735 420.244, 344.064 420.233, 342.591 421.310 C 341.166 422.352, 340.325 426.335, 338.421 441.058 C 337.109 451.201, 336.028 460.063, 336.018 460.750 C 336.004 461.700, 331.911 462, 318.934 462 C 309.083 462, 301.051 462.438, 299.934 463.035 C 297.027 464.591, 297.409 468.825, 300.565 470.025 C 301.976 470.561, 311.221 471, 321.111 471 C 338.585 471, 339.156 470.935, 341.411 468.680 C 343.267 466.824, 343.879 464.783, 344.469 458.488 C 345.664 445.734, 346.306 445.555, 349.340 457.129 C 350.832 462.823, 352.614 468.043, 353.300 468.729 C 353.986 469.415, 356.666 470.267, 359.254 470.621 C 363.290 471.175, 364.061 470.998, 364.665 469.383 C 365.052 468.347, 368.753 462.405, 372.888 456.177 L 380.406 444.854 384.453 445.061 C 390.751 445.384, 392.469 445.116, 394.559 443.486 C 395.626 442.653, 396.050 442.031, 395.500 442.104 C 392.128 442.552, 392.073 441.708, 395.397 440.523 C 397.540 439.760, 399.888 438.542, 400.614 437.817 C 401.707 436.727, 400.991 436.559, 396.467 436.843 C 392.971 437.062, 391 436.791, 391 436.093 C 391 435.492, 392.462 434.990, 394.250 434.978 C 398.594 434.949, 405.728 431.620, 409.863 427.693 C 416.629 421.269, 445.853 385.217, 448.524 380 C 450.979 375.204, 451.012 368.777, 448.595 366.105 C 446.113 363.362, 444.447 363.460, 439 366.672 M 197.878 384.320 C 205.718 395.938, 214.455 406.482, 226.522 418.889 L 237.727 430.410 242.178 426.455 C 244.626 424.280, 252.340 417.396, 259.319 411.158 L 272.009 399.817 261.255 388.450 L 250.500 377.084 221.720 377.042 L 192.939 377 197.878 384.320 M 421.378 390.250 C 409.259 402.631, 400.415 413.058, 388.510 429 C 384.198 434.775, 380.239 440.063, 379.712 440.750 C 379.094 441.557, 379.114 442, 379.767 442 C 380.324 442, 384.348 437.163, 388.709 431.250 C 399.765 416.263, 413.057 400.231, 423.948 388.750 C 429.034 383.387, 433.014 379, 432.793 379 C 432.571 379, 427.434 384.063, 421.378 390.250" stroke="none" fill="black" fill-rule="evenodd"/>
</svg>